<svg width="40" height="7" viewBox="0 0 40 7" fill="none" xmlns="http://www.w3.org/2000/svg">
<g clip-path="url(#clip0_18_295)">
<path d="M19.8527 1.76216L18.3761 2.96509H19.3405V6.87518L19.8527 6.46257V1.76216ZM20.2783 6.11338L21.7808 4.88023H20.7894V1.05951L20.2783 1.41552V6.11338ZM38.8765 2.46459C39.0467 2.55312 39.1693 2.62802 39.2442 2.6893L39.7753 1.67811C39.5098 1.51468 39.1897 1.36828 38.8152 1.2389C38.4475 1.10952 38.0491 1.04483 37.6201 1.04483C37.2116 1.04483 36.8337 1.11292 36.4864 1.24911C36.1459 1.3853 35.8735 1.58618 35.6692 1.85175C35.4718 2.11731 35.373 2.44757 35.373 2.84252C35.373 3.28513 35.5126 3.6256 35.7918 3.86393C36.0778 4.09545 36.5136 4.28611 37.0992 4.43592C37.5691 4.55849 37.947 4.67084 38.233 4.77299C38.5258 4.86832 38.6722 5.02834 38.6722 5.25305C38.6722 5.58671 38.359 5.75354 37.7325 5.75354C37.4193 5.75354 37.1231 5.71609 36.8439 5.64119C36.5647 5.56628 36.3195 5.47436 36.1085 5.3654C35.9042 5.25645 35.7578 5.15772 35.6692 5.0692L35.1177 6.14168C35.4718 6.36639 35.8769 6.54343 36.3332 6.67281C36.7894 6.80219 37.249 6.86688 37.7121 6.86688C38.1138 6.86688 38.4883 6.81241 38.8356 6.70345C39.1829 6.5877 39.4621 6.40384 39.6732 6.15189C39.8911 5.89313 40 5.55266 40 5.13048C40 4.7832 39.9183 4.50401 39.7549 4.29292C39.5983 4.07502 39.3702 3.90138 39.0705 3.772C38.7777 3.64262 38.4305 3.52686 38.0287 3.42472C37.5725 3.31577 37.2252 3.21703 36.9869 3.12851C36.7554 3.03999 36.6396 2.89018 36.6396 2.67909C36.6396 2.31819 36.9596 2.13774 37.5997 2.13774C37.838 2.13774 38.0696 2.17179 38.2943 2.23988C38.519 2.30117 38.7131 2.37607 38.8765 2.46459Z" fill="#5A29E4"/>
<path fill-rule="evenodd" clip-rule="evenodd" d="M28.1276 6.83625C27.6781 6.83625 27.2696 6.75794 26.9019 6.60132C26.5342 6.4379 26.2173 6.22 25.9517 5.94762C25.6907 5.67532 25.4828 5.35662 25.3389 5.00792C25.1975 4.66803 25.1246 4.30357 25.1244 3.93544C25.1244 3.56092 25.1993 3.20002 25.3491 2.85274C25.4976 2.50753 25.7129 2.1951 25.9826 1.93347C26.258 1.659 26.584 1.44047 26.9425 1.28998C27.3102 1.13336 27.712 1.05505 28.1478 1.05505C28.5972 1.05505 29.006 1.14017 29.3737 1.31041C29.7414 1.47383 30.0546 1.69514 30.3134 1.97432C30.5756 2.24175 30.7837 2.55738 30.926 2.90381C31.0669 3.24028 31.1399 3.6013 31.1407 3.96608C31.1407 4.3406 31.0658 4.7015 30.916 5.04878C30.7642 5.39211 30.5493 5.70392 30.2825 5.96805C30.017 6.23361 29.7005 6.44471 29.3328 6.60132C28.9651 6.75794 28.5634 6.83625 28.1276 6.83625ZM26.3705 3.94565C26.3705 4.25207 26.4422 4.54488 26.5852 4.82407C26.7255 5.09359 26.933 5.32229 27.1877 5.48798C27.4532 5.65822 27.7699 5.74334 28.1376 5.74334C28.5121 5.74334 28.8287 5.65481 29.0875 5.47777C29.3465 5.29392 29.5437 5.0658 29.6799 4.79342C29.8161 4.51424 29.8844 4.22824 29.8844 3.93544C29.8844 3.62901 29.8129 3.33961 29.6699 3.06724C29.5292 2.79732 29.3172 2.5712 29.0568 2.41353C28.7981 2.2433 28.4885 2.15818 28.1276 2.15818C27.7531 2.15818 27.4328 2.2467 27.1672 2.42375C26.9149 2.59353 26.7108 2.82578 26.5748 3.09788C26.441 3.36047 26.371 3.65093 26.3705 3.94565ZM0 6.79539L2.49225 1.0857H3.50344L5.98548 6.79539H4.67807L4.10608 5.45734H1.88961L1.31762 6.79539H0ZM3.00295 2.58717L2.16539 4.38486H3.80987L3.00295 2.58717Z" fill="#5A29E4"/>
<path d="M10.8145 1.08569L12.3874 3.10809L13.9604 1.08569H15.2985L13.0411 3.97629L15.227 6.79539H13.8891L12.3876 4.85471L10.8964 6.79539H9.5379L11.7339 3.97629L9.46619 1.08569H10.8145Z" fill="#5A29E4"/>
</g>
<defs>
<clipPath id="clip0_18_295">
<rect width="40" height="5.952" fill="white" transform="translate(0 0.984009)"/>
</clipPath>
</defs>
</svg>
