<svg width="35" height="41" viewBox="0 0 35 41" fill="none" xmlns="http://www.w3.org/2000/svg">
<g clip-path="url(#clip0_18_278)">
<path d="M2.92466 36.5137L0 0.771088L34.928 0.842915L31.8355 36.5137L17.5958 40.6369L2.92466 36.5137Z" fill="#1B73BA"/>
<path d="M17.5957 37.1849V4.17514L31.9793 4.22303L29.4143 33.7569L17.5957 37.1849Z" fill="#1C88C7"/>
<path d="M28.4074 8.39441H6.28076L6.88017 12.7091H17.38L7.04805 17.1442L7.64718 21.3152H22.8699L22.3183 27.1403L17.1642 28.1473L12.4898 26.9488L12.1301 23.6405H7.839L8.41419 30.5207L17.6197 33.0857L26.4418 30.281L27.5685 16.8323H18.2428L28.4071 12.6134L28.4074 8.39441Z" fill="white"/>
</g>
<defs>
<clipPath id="clip0_18_278">
<rect width="34.928" height="40" fill="white" transform="translate(0 0.703979)"/>
</clipPath>
</defs>
</svg>
