<svg width="37" height="26" viewBox="0 0 37 26" fill="none" xmlns="http://www.w3.org/2000/svg">
<path d="M35.9508 9.85313C35.8499 9.77003 34.9414 9.08907 32.99 9.08907C32.4853 9.08907 31.9637 9.13893 31.4591 9.22196C31.089 6.68068 28.9525 5.45159 28.8683 5.38518L28.3468 5.08615L28.0104 5.56786C27.5898 6.21565 27.2702 6.94647 27.0851 7.69391C26.7319 9.13893 26.9505 10.5009 27.6907 11.6635C26.7991 12.1619 25.3523 12.2781 25.0496 12.2947H1.16082C0.538386 12.2947 0.0336846 12.793 0.0336846 13.4076C8.22656e-05 15.4671 0.353331 17.5267 1.07675 19.47C1.90104 21.596 3.12916 23.174 4.71053 24.1373C6.49376 25.2169 9.40411 25.8314 12.6846 25.8314C14.165 25.8314 15.6454 25.6986 17.109 25.4328C19.1446 25.0674 21.0961 24.3698 22.8962 23.3566C24.3713 22.5123 25.7006 21.4355 26.8327 20.1676C28.7337 18.0582 29.8609 15.6997 30.6852 13.6069H31.0216C33.0909 13.6069 34.3694 12.793 35.076 12.0954C35.547 11.6635 35.9002 11.1321 36.1526 10.5342L36.3041 10.1023L35.9508 9.85313Z" fill="#0091E2"/>
<path d="M3.38144 11.6137H6.57778C6.72924 11.6137 6.86383 11.4975 6.86383 11.3314V8.50777C6.86383 8.35825 6.74604 8.22542 6.57778 8.22542H3.38144C3.23005 8.22542 3.09546 8.34163 3.09546 8.50777V11.3314C3.11226 11.4975 3.23005 11.6137 3.38144 11.6137V11.6137ZM7.78904 11.6137H10.9854C11.1368 11.6137 11.2714 11.4975 11.2714 11.3314V8.50777C11.2714 8.35825 11.1536 8.22542 10.9854 8.22542H7.78898C7.63759 8.22542 7.503 8.34163 7.503 8.50777V11.3314C7.51986 11.4975 7.63765 11.6137 7.78898 11.6137M12.2807 11.6137H15.4771C15.6285 11.6137 15.7631 11.4975 15.7631 11.3314V8.50777C15.7631 8.35825 15.6453 8.22542 15.4771 8.22542H12.2807C12.1293 8.22542 11.9947 8.34163 11.9947 8.50777V11.3314C11.9947 11.4975 12.1125 11.6137 12.2807 11.6137ZM16.7052 11.6137H19.9016C20.053 11.6137 20.1876 11.4975 20.1876 11.3314V8.50777C20.1876 8.35825 20.0698 8.22542 19.9016 8.22542H16.7052C16.5538 8.22542 16.4192 8.34163 16.4192 8.50777V11.3314C16.4192 11.4975 16.5538 11.6137 16.7052 11.6137ZM7.78904 7.57764H10.9854C11.1368 7.57764 11.2714 7.44481 11.2714 7.29529V4.47167C11.2714 4.32216 11.1536 4.18927 10.9854 4.18927H7.78898C7.63759 4.18927 7.503 4.30554 7.503 4.47167V7.29529C7.51986 7.44475 7.63771 7.57764 7.78904 7.57764ZM12.2807 7.57764H15.4771C15.6285 7.57764 15.7631 7.44481 15.7631 7.29529V4.47167C15.7631 4.32216 15.6453 4.18927 15.4771 4.18927H12.2807C12.1293 4.18927 11.9947 4.30554 11.9947 4.47167V7.29529C11.9947 7.44475 12.1125 7.57764 12.2807 7.57764ZM16.7052 7.57764H19.9016C20.053 7.57764 20.1876 7.44481 20.1876 7.29529V4.47167C20.1876 4.32216 20.0529 4.18927 19.9016 4.18927H16.7052C16.5538 4.18927 16.4192 4.30554 16.4192 4.47167V7.29529C16.4192 7.44475 16.5538 7.57764 16.7052 7.57764ZM16.7052 3.52492H19.9016C20.053 3.52492 20.1876 3.40865 20.1876 3.24258V0.418956C20.1876 0.269444 20.0529 0.136551 19.9016 0.136551H16.7052C16.5538 0.136551 16.4192 0.252824 16.4192 0.418956V3.24258C16.4192 3.39203 16.5538 3.52492 16.7052 3.52492ZM21.1632 11.6137H24.3596C24.511 11.6137 24.6456 11.4975 24.6456 11.3314V8.50777C24.6456 8.35825 24.5279 8.22542 24.3596 8.22542H21.1633C21.0119 8.22542 20.8773 8.34163 20.8773 8.50777V11.3314C20.8941 11.4975 21.0119 11.6137 21.1633 11.6137" fill="#0091E2"/>
</svg>
