<svg width="38" height="41" viewBox="0 0 38 41" fill="none" xmlns="http://www.w3.org/2000/svg">
<g clip-path="url(#clip0_18_243)">
<path d="M0.338867 11.1109L3.72429 13.0797L21.1674 2.9984L17.7457 1.0296L0.338867 11.1109Z" fill="white"/>
<path fill-rule="evenodd" clip-rule="evenodd" d="M17.5896 0.759767C17.6371 0.732357 17.6909 0.717926 17.7457 0.717926C17.8006 0.717926 17.8544 0.732357 17.9019 0.759767L21.3235 2.72856C21.3713 2.75589 21.411 2.79535 21.4386 2.84295C21.4662 2.89056 21.4808 2.94461 21.4808 2.99964C21.4808 3.05468 21.4662 3.10873 21.4386 3.15633C21.411 3.20394 21.3713 3.2434 21.3235 3.27073L3.88173 13.3508C3.83411 13.3784 3.78002 13.393 3.72496 13.393C3.66989 13.393 3.6158 13.3784 3.56818 13.3508L0.182752 11.3795C0.135279 11.3521 0.095857 11.3127 0.0684488 11.2652C0.0410405 11.2177 0.0266113 11.1639 0.0266113 11.109C0.0266113 11.0542 0.0410405 11.0004 0.0684488 10.9529C0.095857 10.9054 0.135279 10.866 0.182752 10.8386L17.5896 0.758518V0.759767ZM17.7457 1.39188L0.963523 11.1109L3.72683 12.7174L20.5415 2.99964L17.7457 1.39188Z" fill="black"/>
<path d="M0.338867 11.1109V31.2698L3.76177 33.2386L3.72429 13.0797L0.338867 11.1109Z" fill="white"/>
<path fill-rule="evenodd" clip-rule="evenodd" d="M0.184015 10.8386C0.231492 10.8112 0.285348 10.7967 0.340169 10.7967C0.394991 10.7967 0.448846 10.8112 0.496323 10.8386L3.88175 12.8086C3.92913 12.836 3.9685 12.8753 3.9959 12.9226C4.02331 12.97 4.03779 13.0237 4.0379 13.0784L4.07413 33.2386C4.07459 33.2937 4.06043 33.348 4.03309 33.396C4.00575 33.4439 3.9662 33.4837 3.91848 33.5114C3.87076 33.539 3.81655 33.5536 3.76139 33.5535C3.70622 33.5534 3.65206 33.5387 3.60442 33.5109L0.184015 31.5409C0.136215 31.5136 0.0964808 31.4741 0.0688389 31.4265C0.0411969 31.3789 0.0266291 31.3248 0.0266113 31.2698L0.0266113 11.1109C0.0266291 11.0558 0.0411969 11.0018 0.0688389 10.9542C0.0964808 10.9066 0.136215 10.8659 0.184015 10.8386ZM0.652478 11.6543V31.0886L3.44701 32.6977L3.41204 13.2596L0.652478 11.6543Z" fill="black"/>
<path d="M3.72437 13.0797L21.1674 2.99838V23.1598L3.76059 33.2398L3.72561 13.0785L3.72437 13.0797Z" fill="black"/>
<path fill-rule="evenodd" clip-rule="evenodd" d="M21.3236 2.72855C21.3712 2.75601 21.4107 2.79553 21.4381 2.84313C21.4655 2.89072 21.4799 2.94471 21.4798 2.99963V23.1598C21.4797 23.2145 21.4652 23.2682 21.4378 23.3156C21.4104 23.3629 21.371 23.4023 21.3236 23.4296L3.91805 33.5109C3.8705 33.5387 3.81645 33.5534 3.76139 33.5535C3.70634 33.5536 3.65222 33.5392 3.60453 33.5117C3.55685 33.4842 3.51728 33.4445 3.48985 33.3968C3.46242 33.349 3.4481 33.2949 3.44834 33.2398L3.41211 13.0797C3.412 13.0248 3.42638 12.9708 3.4538 12.9232C3.48121 12.8756 3.5207 12.8361 3.56826 12.8086L21.0101 2.72855C21.0576 2.70114 21.1114 2.68671 21.1662 2.68671C21.2211 2.68671 21.2762 2.70114 21.3236 2.72855ZM4.03673 13.2596L4.0742 32.6977L20.8552 22.9786V3.54055L4.04047 13.2596H4.03673Z" fill="black"/>
<path d="M6.33276 14.5601L9.71819 16.5301L27.16 6.44877L23.7396 4.47998L6.33276 14.5601Z" fill="white"/>
<path fill-rule="evenodd" clip-rule="evenodd" d="M23.582 4.21015C23.6295 4.18274 23.6833 4.1683 23.7382 4.1683C23.793 4.1683 23.8468 4.18274 23.8943 4.21015L27.3172 6.17894C27.365 6.20627 27.4047 6.24573 27.4323 6.29333C27.4599 6.34094 27.4745 6.39499 27.4745 6.45002C27.4745 6.50505 27.4599 6.55911 27.4323 6.60671C27.4047 6.65432 27.365 6.69378 27.3172 6.72111L9.87542 16.8012C9.82764 16.8291 9.77332 16.8437 9.71801 16.8437C9.6627 16.8437 9.60838 16.8291 9.56061 16.8012L6.17518 14.8311C6.12771 14.8037 6.08829 14.7643 6.06088 14.7168C6.03347 14.6693 6.01904 14.6155 6.01904 14.5607C6.01904 14.5059 6.03347 14.452 6.06088 14.4045C6.08829 14.3571 6.12771 14.3176 6.17518 14.2902L23.582 4.21015ZM23.7394 4.84226L6.95596 14.5613L9.71926 16.1678L26.534 6.45002L23.7394 4.84226Z" fill="black"/>
<path d="M6.33276 14.5601V34.7215L9.75442 36.6902L9.71819 16.5314L6.33276 14.5601Z" fill="white"/>
<path fill-rule="evenodd" clip-rule="evenodd" d="M6.17666 14.289C6.22429 14.2613 6.27838 14.2468 6.33344 14.2468C6.38851 14.2468 6.4426 14.2613 6.49022 14.289L9.87565 16.259C9.92303 16.2864 9.9624 16.3257 9.9898 16.373C10.0172 16.4204 10.0317 16.4741 10.0318 16.5288L10.0668 36.689C10.0671 36.744 10.0529 36.7981 10.0256 36.8458C9.99836 36.8935 9.95897 36.9332 9.91144 36.9609C9.8639 36.9885 9.80992 37.0031 9.75494 37.0032C9.69996 37.0032 9.64593 36.9888 9.59832 36.9613L6.17666 34.9913C6.1291 34.9638 6.08961 34.9243 6.0622 34.8767C6.03478 34.8291 6.0204 34.7751 6.02051 34.7202V14.5601C6.0204 14.5051 6.03478 14.4511 6.0622 14.4035C6.08961 14.356 6.1291 14.3164 6.17666 14.289ZM6.64637 15.1047V34.5391L9.43966 36.1481L9.40593 16.71L6.64637 15.1047Z" fill="black"/>
<path d="M9.71802 16.5301L27.1598 6.44879V26.6102L9.75425 36.6903L9.71802 16.5301Z" fill="black"/>
<path fill-rule="evenodd" clip-rule="evenodd" d="M27.316 6.17896C27.3638 6.20626 27.4036 6.24571 27.4312 6.29332C27.4589 6.34093 27.4734 6.39499 27.4734 6.45004V26.6102C27.4733 26.6649 27.4588 26.7186 27.4314 26.766C27.404 26.8133 27.3647 26.8527 27.3173 26.88L9.91045 36.9613C9.8629 36.9891 9.80885 37.0038 9.7538 37.0039C9.69874 37.004 9.64462 36.9896 9.59694 36.9621C9.54925 36.9346 9.50969 36.8949 9.48226 36.8472C9.45483 36.7995 9.4405 36.7453 9.44074 36.6903L9.40576 16.5301C9.40565 16.4752 9.42003 16.4212 9.44745 16.3736C9.47487 16.326 9.51435 16.2865 9.56192 16.259L27.0037 6.17896C27.0512 6.15155 27.1051 6.13712 27.1599 6.13712C27.2147 6.13712 27.2686 6.15155 27.316 6.17896ZM10.0329 16.71L10.0666 36.1481L26.8488 26.429V6.99096L10.0329 16.71Z" fill="black"/>
<path d="M9.72437 19.903L16.073 40.3805L19.6945 39.195L13.0936 18.6925L9.72437 19.903Z" fill="white"/>
<path fill-rule="evenodd" clip-rule="evenodd" d="M13.2309 18.4127C13.2689 18.4311 13.3027 18.4569 13.3304 18.4887C13.3581 18.5204 13.3791 18.5575 13.3921 18.5976L19.9918 39.0988C20.0174 39.1775 20.0108 39.2631 19.9733 39.3369C19.9358 39.4107 19.8706 39.4666 19.7919 39.4923L16.1691 40.6778C16.1297 40.6908 16.0881 40.6957 16.0467 40.6924C16.0053 40.6891 15.965 40.6776 15.9281 40.6585C15.8913 40.6394 15.8586 40.6132 15.832 40.5813C15.8053 40.5495 15.7853 40.5126 15.7731 40.4729L9.42578 19.9955C9.40175 19.9184 9.40849 19.8351 9.44459 19.7629C9.48069 19.6907 9.54334 19.6352 9.61941 19.6082L12.9886 18.399C13.028 18.3846 13.0698 18.3783 13.1117 18.3804C13.1535 18.3826 13.1945 18.3931 13.2322 18.4115L13.2309 18.4127ZM10.1129 20.0967L16.2778 39.9845L19.301 38.9938L12.8937 19.0973L10.1116 20.0967H10.1129Z" fill="black"/>
<path d="M27.1575 10.5862L33.5061 31.0637L37.1276 29.8782L30.5267 9.37698L27.1575 10.5862Z" fill="white"/>
<path fill-rule="evenodd" clip-rule="evenodd" d="M30.6653 9.09592C30.703 9.1144 30.7366 9.1403 30.7641 9.17207C30.7916 9.20384 30.8124 9.24082 30.8252 9.28081L37.4249 29.7832C37.4501 29.8618 37.4433 29.9471 37.4058 30.0206C37.3684 30.0941 37.3034 30.1498 37.225 30.1755L33.6023 31.361C33.5629 31.3738 33.5214 31.3786 33.4801 31.3752C33.4389 31.3718 33.3988 31.3602 33.362 31.3412C33.3253 31.3221 33.2927 31.2959 33.2662 31.2642C33.2397 31.2324 33.2197 31.1957 33.2075 31.1561L26.8589 10.6787C26.8349 10.6016 26.8416 10.5183 26.8777 10.4461C26.9138 10.3739 26.9765 10.3185 27.0525 10.2914L30.4217 9.08218C30.4611 9.068 30.503 9.06192 30.5449 9.06428C30.5867 9.06664 30.6277 9.0774 30.6653 9.09592ZM27.546 10.7799L33.7109 30.6677L36.7341 29.6783L30.328 9.7805L27.546 10.7799Z" fill="black"/>
<path d="M13.0935 18.6938L30.5266 9.37698L37.1288 29.8782L19.6957 39.195L13.0948 18.6925L13.0935 18.6938Z" fill="white"/>
<path fill-rule="evenodd" clip-rule="evenodd" d="M30.6453 9.08715C30.6876 9.10431 30.7257 9.13054 30.7568 9.164C30.7878 9.19745 30.8112 9.23732 30.8252 9.28078L37.4249 29.7832C37.4473 29.8528 37.4446 29.9281 37.4172 29.9959C37.3898 30.0637 37.3395 30.1197 37.275 30.1542L19.8419 39.471C19.8015 39.4929 19.7568 39.5055 19.711 39.5081C19.6651 39.5106 19.6193 39.5031 19.5767 39.4859C19.5341 39.4687 19.4958 39.4423 19.4646 39.4087C19.4334 39.375 19.4099 39.3349 19.396 39.2911L12.7963 18.7887C12.7739 18.7191 12.7766 18.6438 12.804 18.576C12.8314 18.5082 12.8817 18.4522 12.9462 18.4177L30.3792 9.09964C30.4196 9.07786 30.4642 9.06522 30.51 9.06263C30.5558 9.06004 30.6015 9.06756 30.6441 9.08465L30.6453 9.08715ZM13.4721 18.8462L19.8769 38.7427L36.7491 29.7257L30.3455 9.8292L13.4734 18.8462H13.4721Z" fill="black"/>
<path d="M13.0936 18.6938L9.72437 19.903L27.1574 10.5862L30.5266 9.37698L13.0936 18.6925V18.6938Z" fill="white"/>
<path fill-rule="evenodd" clip-rule="evenodd" d="M30.8127 9.24957C30.8451 9.32172 30.849 9.40351 30.8235 9.47841C30.798 9.5533 30.745 9.61573 30.6753 9.65307L13.2397 18.9686C13.2264 18.9759 13.2127 18.9821 13.1985 18.9873L9.82928 20.1979C9.75357 20.2315 9.66761 20.2337 9.5903 20.2039C9.51299 20.1742 9.45066 20.1149 9.41703 20.0392C9.3834 19.9635 9.38123 19.8775 9.41098 19.8002C9.44073 19.7229 9.49998 19.6606 9.57568 19.627L27.01 10.3102C27.0237 10.3029 27.0379 10.2966 27.0525 10.2914L30.4217 9.08217C30.4959 9.05552 30.5775 9.05796 30.6501 9.08902C30.7226 9.12007 30.7807 9.17743 30.8127 9.24957Z" fill="black"/>
<path d="M23.0063 17.0236L21.8308 17.6244L20.6565 18.2253L19.7046 32.4566L22.0157 33.4897L23.7771 22.1042L32.9902 27.8794L33.7297 25.2897L23.0063 17.0236Z" fill="black"/>
<path fill-rule="evenodd" clip-rule="evenodd" d="M22.8652 16.745C22.9178 16.7182 22.977 16.7069 23.0358 16.7125C23.0946 16.718 23.1507 16.7401 23.1975 16.7762L33.9209 25.0411C33.9703 25.0794 34.0071 25.1317 34.0265 25.1912C34.0459 25.2507 34.0469 25.3146 34.0296 25.3747L33.2925 27.9656C33.2794 28.0126 33.2555 28.0559 33.2227 28.092C33.1899 28.1281 33.1491 28.156 33.1036 28.1735C33.058 28.191 33.009 28.1975 32.9605 28.1927C32.9119 28.1878 32.8652 28.1716 32.8241 28.1455L24.0132 22.6214L22.3255 33.5372C22.3182 33.5848 22.3 33.6301 22.2723 33.6695C22.2446 33.7089 22.2081 33.7414 22.1658 33.7644C22.1234 33.7873 22.0764 33.8002 22.0282 33.802C21.9801 33.8037 21.9322 33.7943 21.8883 33.7745L19.5772 32.7426C19.5187 32.7167 19.4697 32.6734 19.4366 32.6187C19.4035 32.564 19.3881 32.5004 19.3923 32.4366L20.3442 18.2053C20.3475 18.1513 20.3648 18.0991 20.3943 18.0537C20.4239 18.0084 20.4647 17.9715 20.5128 17.9467L22.8652 16.745ZM20.9563 18.4239L20.0319 32.2604L21.7683 33.0362L23.4673 22.0555C23.4751 22.0043 23.4955 21.9558 23.5267 21.9145C23.5579 21.8732 23.5989 21.8402 23.646 21.8187C23.6931 21.7971 23.7448 21.7876 23.7964 21.791C23.8481 21.7944 23.8981 21.8106 23.942 21.8381L32.8041 27.3934L33.37 25.4071L22.9726 17.3933L20.9563 18.4239Z" fill="black"/>
</g>
<defs>
<clipPath id="clip0_18_243">
<rect width="37.504" height="40" fill="white" transform="translate(0 0.703979)"/>
</clipPath>
</defs>
</svg>
