<svg width="40" height="27" viewBox="0 0 40 27" fill="none" xmlns="http://www.w3.org/2000/svg">
<g clip-path="url(#clip0_18_141)">
<path d="M38.4565 4.57151L39.6964 1.36007L39.6426 1.16111L27.3759 4.39301C28.6838 2.50123 28.2345 0.983994 28.2345 0.983994C28.2345 0.983994 24.3172 3.48559 21.3548 3.42019C18.3924 3.35464 17.4375 2.56402 12.895 4.01309C8.3525 5.46108 7.06916 9.90586 5.75211 10.8607C4.43507 11.8155 0.303589 14.9258 0.303589 14.9258L0.312514 14.9811L4.03745 13.7951C4.03745 13.7951 3.01569 14.7576 0.84524 17.6829L0.743835 17.5892L0.747682 17.6098C0.747682 17.6098 2.49205 20.2756 4.20425 19.7827C4.37629 19.7327 4.57002 19.6505 4.78175 19.5426C5.47113 19.9266 6.37086 20.3039 7.36429 20.4077C7.36429 20.4077 6.69185 19.626 6.13081 18.7366C6.28222 18.6391 6.43764 18.5377 6.59552 18.435L6.52227 18.4864L7.94057 19.0075L7.78407 17.6739C7.78915 17.6713 7.793 17.6675 7.79808 17.6649L9.19206 18.177L9.01879 16.9641C9.19285 16.8729 9.36914 16.786 9.54752 16.7036L11.0006 11.2075L17.0088 7.10912L16.5313 8.3106C15.3132 11.3063 13.0259 12.0135 13.0259 12.0135L12.071 12.3755C11.3613 13.2149 11.0621 13.4215 10.8184 16.2389C11.3908 16.0952 11.9376 16.0604 12.4329 16.1939C15 16.8858 15.8895 19.9792 15.1976 20.8352C15.0244 21.0496 14.6124 21.4153 14.0926 21.8454H13.0504L13.0362 22.6899C13.0002 22.7182 12.9644 22.7452 12.9296 22.7733H11.8694L11.8566 23.5973C11.7629 23.6693 11.6692 23.7386 11.5795 23.8066C10.5834 23.8271 9.32163 22.9581 9.32163 22.9581C9.32163 23.7489 9.98023 24.9656 9.98023 24.9656C9.98023 24.9656 10.0238 24.9452 10.0969 24.9091C10.0327 24.9567 9.99684 24.9824 9.99684 24.9824C9.99684 24.9824 12.6626 26.76 14.3416 26.1015C15.8342 25.5162 19.699 22.4691 23.035 21.0265L33.1298 18.367L34.4609 14.9181L26.7674 16.9447V13.8478L35.7945 11.4693L37.1256 8.02039L26.77 10.7493V7.65062L38.4565 4.57151Z" fill="black"/>
</g>
<defs>
<clipPath id="clip0_18_141">
<rect width="40" height="25.776" fill="white" transform="translate(0 0.983994)"/>
</clipPath>
</defs>
</svg>
