<svg width="40" height="40" viewBox="0 0 40 40" fill="none" xmlns="http://www.w3.org/2000/svg">
<g clip-path="url(#clip0_8_119)">
<path d="M38.7417 10.8167L40 7.555L39.9483 7.35334L27.4933 10.6317C28.8217 8.71 28.365 7.16833 28.365 7.16833C28.365 7.16833 24.3867 9.70833 21.3767 9.64333C18.37 9.57667 17.3983 8.77667 12.785 10.2467C8.17167 11.7167 6.86667 16.23 5.53333 17.2017C4.19333 18.1733 0 21.33 0 21.33L0.01 21.3867L3.79333 20.18C3.79333 20.18 2.75667 21.155 0.551667 24.13L0.448333 24.035L0.451667 24.0533C0.451667 24.0533 2.225 26.7633 3.96333 26.26C4.16636 26.1961 4.36326 26.1141 4.55167 26.015C5.25 26.405 6.16333 26.7867 7.17167 26.89C7.17167 26.89 6.48833 26.0983 5.91833 25.195L6.315 24.9383L7.75667 25.4683L7.59667 24.115C7.60167 24.11 7.60667 24.11 7.61 24.105L9.025 24.6233L8.85 23.3933C9.02606 23.2999 9.20504 23.2121 9.38667 23.13L10.8617 17.555L16.965 13.3933L16.48 14.615C15.245 17.6583 12.9217 18.375 12.9217 18.375L11.9517 18.7417C11.23 19.595 10.9283 19.8033 10.6783 22.6633C11.2583 22.5167 11.815 22.485 12.3183 22.6167C14.925 23.3183 15.83 26.4617 15.1267 27.3283C14.9533 27.545 14.5333 27.9183 14.005 28.3567H12.95L12.9367 29.2133L12.8283 29.2983H11.7533L11.7383 30.1383L11.455 30.35C10.4433 30.3683 9.16667 29.4867 9.16667 29.4867C9.16667 30.2883 9.835 31.5283 9.835 31.5283L9.95167 31.4717L9.85 31.5467C9.85 31.5467 12.5583 33.3517 14.26 32.6817C15.7767 32.0883 19.6983 28.9933 23.0867 27.5267L33.3367 24.8267L34.6883 21.3267L26.875 23.385V20.2367L36.0417 17.8233L37.3933 14.3233L26.8767 17.0933V13.945L38.7417 10.8167ZM20.1367 17.4833L22.5683 16.8433L22.6017 16.9667L21.8433 18.9317L19.3217 19.595L20.1367 17.4833ZM20.975 21.6933L18.455 22.3567L19.27 20.2467L21.7017 19.605L21.735 19.7283L20.975 21.6933ZM24.26 20.9867L21.7383 21.65L22.555 19.54L24.9867 18.8983L25.02 19.02L24.26 20.9867Z" fill="#2D2F4A"/>
</g>
<defs>
<clipPath id="clip0_8_119">
<rect width="40" height="40" fill="white"/>
</clipPath>
</defs>
</svg>
