<svg width="27" height="41" viewBox="0 0 27 41" fill="none" xmlns="http://www.w3.org/2000/svg">
<g clip-path="url(#clip0_18_188)">
<path d="M13.3359 20.704C13.3359 17.0222 16.3207 14.0373 20.0026 14.0373C23.6844 14.0373 26.6693 17.0222 26.6693 20.704C26.6693 24.3859 23.6844 27.3707 20.0026 27.3707C16.3207 27.3707 13.3359 24.3859 13.3359 20.704Z" fill="#1ABCFE"/>
<path d="M0.00268555 34.0373C0.00268555 30.3555 2.98742 27.3707 6.66935 27.3707H13.336V34.0373C13.336 37.7193 10.3513 40.704 6.66935 40.704C2.98742 40.704 0.00268555 37.7193 0.00268555 34.0373Z" fill="#0ACF83"/>
<path d="M13.3359 0.704086V14.0373H20.0026C23.6845 14.0373 26.6693 11.0526 26.6693 7.37066C26.6693 3.68873 23.6845 0.704086 20.0026 0.704086H13.3359Z" fill="#FF7262"/>
<path d="M0.00268555 7.37066C0.00268555 11.0526 2.98742 14.0373 6.66935 14.0373H13.336V0.703995H6.66935C2.98742 0.703995 0.00268555 3.68883 0.00268555 7.37066Z" fill="#F24E1E"/>
<path d="M0.00268555 20.704C0.00268555 24.3859 2.98742 27.3707 6.66935 27.3707H13.336V14.0373H6.66935C2.98742 14.0373 0.00268555 17.0222 0.00268555 20.704Z" fill="#A259FF"/>
</g>
<defs>
<clipPath id="clip0_18_188">
<rect width="26.672" height="40" fill="white" transform="translate(0 0.703995)"/>
</clipPath>
</defs>
</svg>
