<svg width="28" height="30" viewBox="0 0 28 30" fill="none" xmlns="http://www.w3.org/2000/svg">
<path d="M27.0872 12.3546C27.0872 10.606 24.8975 8.94893 21.5402 7.92131C22.315 4.49946 21.9707 1.77704 20.4533 0.905432C20.1036 0.700981 19.6948 0.604133 19.2482 0.604133V1.80394C19.4957 1.80394 19.6948 1.85237 19.8615 1.94382C20.5933 2.36348 20.9107 3.96143 20.6632 6.01669C20.6041 6.52244 20.5072 7.05508 20.3888 7.59848C19.3342 7.34023 18.1829 7.14117 16.9723 7.01204C16.246 6.01668 15.4928 5.1128 14.7341 4.32191C16.4881 2.69168 18.1345 1.79855 19.2536 1.79855V0.598755C17.774 0.598755 15.8371 1.65329 13.8787 3.48258C11.9202 1.66405 9.9834 0.620278 8.50385 0.620278V1.82007C9.61755 1.82007 11.2693 2.70783 13.0232 4.32728C12.27 5.11819 11.5167 6.01668 10.8011 7.01204C9.58519 7.14117 8.43384 7.34023 7.37934 7.60386C7.25554 7.06584 7.1641 6.54395 7.0995 6.04359C6.84673 3.98833 7.15869 2.39038 7.88511 1.96535C8.04644 1.8685 8.25626 1.82546 8.50385 1.82546V0.625656C8.05186 0.625656 7.64293 0.722504 7.2879 0.926955C5.77599 1.79855 5.43708 4.51559 6.21716 7.92668C2.87066 8.9597 0.69165 10.6115 0.69165 12.3546C0.69165 14.1033 2.88141 15.7604 6.23869 16.788C5.46391 20.2099 5.80823 22.9322 7.32556 23.8038C7.67529 24.0082 8.0841 24.1051 8.5361 24.1051C10.0156 24.1051 11.9526 23.0506 13.911 21.2213C15.8694 23.0399 17.8063 24.0837 19.2859 24.0837C19.7377 24.0837 20.1467 23.9868 20.5018 23.7823C22.0136 22.9107 22.3526 20.1936 21.5724 16.7827C24.9082 15.755 27.0872 14.0979 27.0872 12.3546ZM20.0822 8.766C19.8831 9.46011 19.6356 10.1756 19.3558 10.8912C19.1352 10.4608 18.9039 10.0304 18.651 9.59991C18.4035 9.16953 18.1398 8.74987 17.8762 8.34096C18.6402 8.45395 19.3773 8.59384 20.0822 8.766ZM17.6179 14.496C17.1983 15.2224 16.7679 15.911 16.3214 16.5513C15.5196 16.6212 14.7073 16.6589 13.8894 16.6589C13.077 16.6589 12.2646 16.6212 11.4684 16.5566C11.0218 15.9163 10.5859 15.2331 10.1663 14.5121C9.75735 13.8073 9.38619 13.0917 9.04717 12.3708C9.38078 11.6498 9.75734 10.9288 10.161 10.2241C10.5806 9.49776 11.011 8.80905 11.4575 8.16879C12.2593 8.09885 13.0716 8.06119 13.8894 8.06119C14.7019 8.06119 15.5143 8.09885 16.3105 8.16341C16.7571 8.80367 17.193 9.48694 17.6126 10.2079C18.0215 10.9127 18.3927 11.6283 18.7317 12.3493C18.3927 13.0702 18.0215 13.7912 17.6179 14.496ZM19.3558 13.7966C19.6382 14.4978 19.886 15.2124 20.0983 15.9379C19.3934 16.11 18.651 16.2553 17.8816 16.3683C18.1452 15.9541 18.4088 15.529 18.6564 15.0932C18.9039 14.6628 19.1352 14.227 19.3558 13.7966ZM13.9002 19.5374C13.3998 19.0208 12.8994 18.4451 12.4045 17.8156C12.8887 17.8372 13.3837 17.8533 13.884 17.8533C14.3898 17.8533 14.8902 17.8426 15.3798 17.8156C14.918 18.4158 14.424 18.9905 13.9002 19.5374ZM9.89726 16.3683C9.13331 16.2553 8.39618 16.1154 7.69141 15.9433C7.8904 15.2492 8.138 14.5336 8.41771 13.818C8.63836 14.2485 8.86971 14.679 9.12248 15.1093C9.37537 15.5398 9.63367 15.9594 9.89726 16.3683ZM13.8733 5.17199C14.3737 5.68848 14.874 6.26418 15.369 6.89367C14.8848 6.87215 14.3898 6.85601 13.8894 6.85601C13.3837 6.85601 12.8833 6.86677 12.3938 6.89367C12.8556 6.29353 13.3495 5.7188 13.8733 5.17199ZM9.89185 8.34096C9.62825 8.75525 9.36466 9.18028 9.11719 9.61603C8.86971 10.0465 8.63836 10.477 8.41771 10.9073C8.13526 10.2061 7.88749 9.49151 7.67529 8.766C8.38006 8.59922 9.12248 8.45395 9.89185 8.34096ZM5.02274 15.0771C3.11816 14.2646 1.88607 13.1994 1.88607 12.3546C1.88607 11.5099 3.11816 10.4393 5.02274 9.63227C5.48545 9.43316 5.99122 9.25561 6.51312 9.08882C6.81978 10.1433 7.2233 11.2409 7.72366 12.3654C7.22871 13.4845 6.83049 14.5767 6.52924 15.6259C5.99663 15.459 5.49086 15.2762 5.02274 15.0771ZM7.91735 22.7655C7.18564 22.3458 6.86815 20.7479 7.11574 18.6926C7.17493 18.1869 7.27166 17.6542 7.39004 17.1107C8.44466 17.369 9.59601 17.5682 10.8066 17.6972C11.5329 18.6926 12.2861 19.5964 13.0448 20.3873C11.2908 22.0176 9.64438 22.9107 8.52527 22.9107C8.28321 22.9054 8.07881 22.8569 7.91735 22.7655ZM20.6794 18.6657C20.9322 20.7209 20.6202 22.3189 19.8938 22.7439C19.7324 22.8408 19.5226 22.8838 19.275 22.8838C18.1613 22.8838 16.5096 21.9961 14.7557 20.3766C15.5089 19.5857 16.2622 18.6873 16.9778 17.6918C18.1937 17.5627 19.3451 17.3636 20.3996 17.1C20.5234 17.6435 20.6202 18.1654 20.6794 18.6657ZM22.7507 15.0771C22.288 15.2762 21.7823 15.4537 21.2604 15.6205C20.9537 14.566 20.5502 13.4684 20.0498 12.3439C20.5449 11.2248 20.943 10.1326 21.2442 9.08343C21.777 9.25023 22.2826 9.43316 22.7562 9.63227C24.6607 10.4446 25.8928 11.5099 25.8928 12.3546C25.8874 13.1994 24.6553 14.27 22.7507 15.0771Z" fill="#61DAFB"/>
<path d="M13.8841 14.8135C15.2422 14.8135 16.343 13.7126 16.343 12.3546C16.343 10.9967 15.2422 9.89586 13.8841 9.89586C12.5262 9.89586 11.4254 10.9967 11.4254 12.3546C11.4254 13.7126 12.5262 14.8135 13.8841 14.8135ZM1.8903 28.3386H1.07864V29.7365H0.620605V26.281H1.76452C2.15373 26.281 2.45277 26.3696 2.66161 26.5469C2.87204 26.724 2.97726 26.9819 2.97726 27.3204C2.97726 27.5357 2.91872 27.7231 2.80163 27.883C2.68614 28.0428 2.52476 28.1622 2.31749 28.2413L3.12915 29.708V29.7365H2.64025L1.8903 28.3386ZM1.07864 27.966H1.77876C2.00501 27.966 2.18459 27.9074 2.31749 27.7904C2.45197 27.6733 2.51921 27.5167 2.51921 27.3204C2.51921 27.1069 2.45513 26.9432 2.32698 26.8292C2.20041 26.7153 2.01688 26.6575 1.77638 26.656H1.07864V27.966ZM4.61486 29.784C4.26673 29.784 3.98352 29.6701 3.76518 29.4422C3.54683 29.2128 3.43767 28.9066 3.43767 28.5238V28.443C3.43767 28.1883 3.48592 27.9613 3.58243 27.762C3.68053 27.5609 3.8166 27.4043 3.99064 27.292C4.16627 27.1781 4.35612 27.1211 4.56023 27.1211C4.89409 27.1211 5.1536 27.2311 5.33863 27.451C5.52379 27.6709 5.6163 27.9857 5.6163 28.3955V28.5783H3.87672C3.88305 28.8315 3.95663 29.0364 4.09744 29.193C4.23983 29.348 4.4202 29.4256 4.63856 29.4256C4.79364 29.4256 4.92489 29.3939 5.03245 29.3307C5.14012 29.2674 5.2342 29.1835 5.31493 29.0791L5.5831 29.288C5.36787 29.6186 5.0452 29.784 4.61486 29.784ZM4.56023 27.4819C4.38302 27.4819 4.2343 27.5467 4.11405 27.6764C3.9938 27.8047 3.91944 27.985 3.89096 28.2176H5.1773V28.1844C5.16466 27.9613 5.10451 27.7888 4.99696 27.6669C4.88928 27.5436 4.74371 27.4819 4.56023 27.4819ZM7.71195 29.7365C7.68656 29.6858 7.66599 29.5957 7.65023 29.4659C7.44607 29.6779 7.20244 29.784 6.91924 29.784C6.66611 29.784 6.4581 29.7128 6.29508 29.5703C6.13375 29.4263 6.05302 29.2444 6.05302 29.0245C6.05302 28.7572 6.15432 28.5499 6.3568 28.4027C6.56084 28.2539 6.84729 28.1796 7.21592 28.1796H7.64313V27.9779C7.64313 27.8244 7.59717 27.7025 7.5055 27.6124C7.4137 27.5206 7.27836 27.4748 7.09958 27.4748C6.94294 27.4748 6.81168 27.5143 6.70569 27.5934C6.5997 27.6725 6.54664 27.7682 6.54664 27.8806H6.10523C6.10523 27.7525 6.15035 27.629 6.24046 27.5103C6.33225 27.3901 6.45569 27.2952 6.61077 27.2255C6.76741 27.156 6.93897 27.1211 7.12569 27.1211C7.42165 27.1211 7.65336 27.1954 7.82107 27.3443C7.98878 27.4914 8.07576 27.6947 8.08214 27.9541V29.136C8.08214 29.3718 8.11221 29.5593 8.17237 29.6985V29.7365H7.71195ZM6.98336 29.4019C7.12099 29.4019 7.25153 29.3663 7.37497 29.2951C7.49828 29.2238 7.58767 29.1313 7.64313 29.0174V28.4906H7.29893C6.76103 28.4906 6.49202 28.6479 6.49202 28.9628C6.49202 29.1004 6.53798 29.2081 6.62966 29.2856C6.72145 29.363 6.83935 29.4019 6.98336 29.4019ZM9.80038 29.4256C9.95702 29.4256 10.0939 29.3781 10.211 29.2831C10.328 29.1882 10.3929 29.0696 10.4055 28.9272H10.8209C10.813 29.0743 10.7624 29.2143 10.669 29.3473C10.5756 29.4802 10.4506 29.5862 10.294 29.6652C10.1389 29.7444 9.97446 29.784 9.80038 29.784C9.45076 29.784 9.17225 29.6677 8.96496 29.4351C8.75935 29.2009 8.65649 28.8813 8.65649 28.4762V28.4027C8.65649 28.1527 8.70232 27.9304 8.79412 27.7359C8.88591 27.5412 9.01717 27.3901 9.18813 27.2825C9.36053 27.1749 9.56385 27.1211 9.79797 27.1211C10.086 27.1211 10.3249 27.2074 10.5148 27.3799C10.7062 27.5523 10.8082 27.7762 10.8209 28.0514H10.4055C10.3929 27.8853 10.3296 27.7492 10.2157 27.6432C10.1034 27.5357 9.96412 27.4819 9.79797 27.4819C9.57492 27.4819 9.40167 27.5625 9.27824 27.724C9.15649 27.8837 9.09549 28.1156 9.09549 28.4193V28.5023C9.09549 28.7982 9.15649 29.026 9.27824 29.1858C9.40011 29.3457 9.5742 29.4256 9.80038 29.4256ZM11.9102 26.5469V27.1686H12.3896V27.508H11.9102V29.1004C11.9102 29.2033 11.9316 29.2807 11.9743 29.333C12.0171 29.3836 12.0898 29.409 12.1927 29.409C12.2432 29.409 12.3129 29.3995 12.4014 29.3805V29.7365C12.2859 29.7681 12.1737 29.784 12.0645 29.784C11.8684 29.784 11.7204 29.7246 11.6206 29.6059C11.521 29.4873 11.4712 29.3188 11.4712 29.1004V27.508H11.0036V27.1686H11.4712V26.5469H11.9102ZM16.8348 29.7365H16.3767L14.6371 27.0737V29.7365H14.1791V26.281H14.6371L16.3815 28.9557V26.281H16.8348V29.7365ZM19.1606 29.7365C19.1352 29.6858 19.1146 29.5957 19.0989 29.4659C18.8947 29.6779 18.6511 29.784 18.3679 29.784C18.1147 29.784 17.9066 29.7128 17.7437 29.5703C17.5824 29.4263 17.5017 29.2444 17.5017 29.0245C17.5017 28.7572 17.6028 28.5499 17.8054 28.4027C18.0095 28.2539 18.2959 28.1796 18.6646 28.1796H19.0918V27.9779C19.0918 27.8244 19.0458 27.7025 18.954 27.6124C18.8623 27.5206 18.727 27.4748 18.5482 27.4748C18.3916 27.4748 18.2603 27.5143 18.1543 27.5934C18.0483 27.6725 17.9953 27.7682 17.9953 27.8806H17.5539C17.5539 27.7525 17.599 27.629 17.6891 27.5103C17.7809 27.3901 17.9043 27.2952 18.0594 27.2255C18.216 27.156 18.3876 27.1211 18.5743 27.1211C18.8702 27.1211 19.102 27.1954 19.2697 27.3443C19.4374 27.4914 19.5244 27.6947 19.5308 27.9541V29.136C19.5308 29.3718 19.5608 29.5593 19.621 29.6985V29.7365H19.1606ZM18.432 29.4019C18.5696 29.4019 18.7002 29.3663 18.8236 29.2951C18.9469 29.2238 19.0363 29.1313 19.0918 29.0174V28.4906H18.7476C18.2097 28.4906 17.9407 28.6479 17.9407 28.9628C17.9407 29.1004 17.9866 29.2081 18.0783 29.2856C18.1701 29.363 18.288 29.4019 18.432 29.4019ZM20.8147 26.5469V27.1686H21.2941V27.508H20.8147V29.1004C20.8147 29.2033 20.8361 29.2807 20.8788 29.333C20.9215 29.3836 20.9943 29.409 21.0972 29.409C21.1477 29.409 21.2174 29.3995 21.306 29.3805V29.7365C21.1904 29.7681 21.0782 29.784 20.9689 29.784C20.7728 29.784 20.6249 29.7246 20.5251 29.6059C20.4255 29.4873 20.3757 29.3188 20.3757 29.1004V27.508H19.9082V27.1686H20.3757V26.5469H20.8147ZM22.2862 29.7365H21.8471V27.1686H22.2862V29.7365ZM21.8115 26.4874C21.8115 26.4163 21.8329 26.3562 21.8756 26.3071C21.9199 26.258 21.9847 26.2336 22.0701 26.2336C22.1557 26.2336 22.2205 26.258 22.2648 26.3071C22.309 26.3562 22.3312 26.4163 22.3312 26.4874C22.3312 26.5586 22.309 26.618 22.2648 26.6655C22.2205 26.7129 22.1557 26.7367 22.0701 26.7367C21.9847 26.7367 21.9199 26.7129 21.8756 26.6655C21.8329 26.618 21.8115 26.5586 21.8115 26.4874ZM23.8383 29.1408L24.4742 27.1686H24.9229L24.002 29.7365H23.6673L22.7371 27.1686H23.1856L23.8383 29.1408ZM26.3776 29.784C26.0296 29.784 25.7464 29.6701 25.528 29.4422C25.3096 29.2128 25.2005 28.9066 25.2005 28.5238V28.443C25.2005 28.1883 25.2488 27.9613 25.3453 27.762C25.4433 27.5609 25.5794 27.4043 25.7535 27.292C25.9291 27.1781 26.119 27.1211 26.323 27.1211C26.6569 27.1211 26.9164 27.2311 27.1015 27.451C27.2866 27.6709 27.3792 27.9857 27.3792 28.3955V28.5783H25.6395C25.6459 28.8315 25.7194 29.0364 25.8603 29.193C26.0026 29.348 26.1831 29.4256 26.4013 29.4256C26.5564 29.4256 26.6878 29.3939 26.7953 29.3307C26.9029 29.2674 26.9971 29.1835 27.0778 29.0791L27.346 29.288C27.1308 29.6186 26.808 29.784 26.3776 29.784ZM26.323 27.4819C26.1459 27.4819 25.9971 27.5467 25.8769 27.6764C25.7566 27.8047 25.6822 27.985 25.6539 28.2176H26.9401V28.1844C26.9274 27.9613 26.8673 27.7888 26.7597 27.6669C26.6522 27.5436 26.5066 27.4819 26.323 27.4819Z" fill="#61DAFB"/>
</svg>
