<svg width="40" height="40" viewBox="0 0 40 40" fill="none" xmlns="http://www.w3.org/2000/svg">
<path d="M0 20C0 8.95431 8.95431 0 20 0C31.0457 0 40 8.95431 40 20C40 31.0457 31.0457 40 20 40C8.95431 40 0 31.0457 0 20Z" fill="#F7DF1E"/>
<path d="M10.5175 33.4269L10.7703 33.2739C12.3071 32.3439 14.1985 33.5074 15.9949 33.5074C17.23 33.5074 18.0088 33.0242 18.0088 31.1448V20.2434C18.0088 19.2054 18.8502 18.3639 19.8883 18.3639C20.9263 18.3639 21.7677 19.2054 21.7677 20.2434V31.198C21.7677 35.0913 19.4856 36.8634 16.156 36.8634C13.149 36.8634 11.4034 35.3061 10.5174 33.4266" fill="#2D2F4A"/>
<path d="M24.7814 34.462C24.1354 33.7296 24.4704 32.6415 25.3156 32.1522C26.1803 31.6515 27.2433 31.9879 28.0035 32.6363C28.6547 33.1915 29.4723 33.5344 30.5757 33.5344C32.1332 33.5344 33.1264 32.7557 33.1264 31.6816C33.1264 30.3928 32.1061 29.9363 30.3877 29.1847L29.4482 28.7817C26.7361 27.6273 24.9371 26.1774 24.9371 23.1164C24.9371 20.2971 27.0851 18.149 30.4415 18.149C32.2664 18.149 33.6999 18.6344 34.8255 19.8325C35.4546 20.5021 35.1793 21.5451 34.4062 22.0415C33.567 22.5804 32.5162 22.1633 31.6366 21.6933C31.2901 21.5081 30.9001 21.4249 30.4416 21.4249C29.3407 21.4249 28.6425 22.123 28.6425 23.0358C28.6425 24.1635 29.3407 24.6201 30.9515 25.3183L31.8912 25.721C35.0865 27.0904 36.8855 28.4865 36.8855 31.6279C36.8855 35.0113 34.2274 36.8638 30.6563 36.8638C27.9885 36.8638 26.0422 35.8914 24.7814 34.462Z" fill="#2D2F4A"/>
</svg>
