<svg width="40" height="41" viewBox="0 0 40 41" fill="none" xmlns="http://www.w3.org/2000/svg">
<g clip-path="url(#clip0_18_169)">
<path fill-rule="evenodd" clip-rule="evenodd" d="M0 0.984009H40V40.984H0V0.984009Z" fill="white"/>
<path fill-rule="evenodd" clip-rule="evenodd" d="M21.6639 3.20692C21.8681 3.19821 22.0769 3.25756 22.2801 3.27644C22.6198 3.34928 22.9651 3.4464 23.2865 3.58419C23.4897 3.66823 23.6683 3.80934 23.8746 3.87782C24.1519 4.0179 24.3403 4.26858 24.6018 4.42401C24.7817 4.6116 24.9317 4.73735 25.1052 4.92723C25.1944 5.03763 25.2731 5.13703 25.3569 5.24951C25.3909 5.39082 25.5248 5.49334 25.5665 5.64005C25.6383 5.80337 25.7047 5.98328 25.7344 6.17191C25.7829 6.38483 25.8305 6.60002 25.8325 6.81521C25.8018 8.48282 25.7807 10.1523 25.8325 11.823C25.9176 12.3152 25.8722 12.8284 26.0149 13.3051C26.0867 13.6614 26.1394 14.0268 26.2938 14.3126C26.5601 14.7905 26.7697 15.3001 27.0643 15.7814C27.2264 15.9569 27.3522 16.1532 27.5113 16.3408C27.8299 16.7978 28.0961 17.3317 28.435 17.7534C28.6523 18.1881 28.8892 18.6131 29.1333 19.0402C29.3153 19.5887 29.6278 20.0917 29.7635 20.6624C29.943 21.3048 30.142 21.9359 30.2389 22.6487C30.4477 23.7774 30.5944 24.8965 30.7276 26.0335C30.72 26.648 30.643 27.2649 30.6724 27.8796C30.6162 28.0858 30.655 28.2865 30.6019 28.4953C30.5367 28.7843 30.3701 29.0493 30.3084 29.3351C30.3336 29.4951 30.251 29.6484 30.2808 29.8105C30.4122 30.0788 30.422 30.3868 30.4904 30.6771C30.5998 30.7431 30.6571 30.8744 30.7839 30.9577C31.0003 30.9176 31.2087 31.0205 31.4276 30.9853C31.6878 30.9155 31.9592 30.9211 32.211 30.8738C32.5197 30.8394 32.8233 30.9321 33.1334 30.9014C33.3353 31.029 33.5691 31.1264 33.7491 31.2513C33.9103 31.3474 33.9778 31.5536 34.1411 31.6707C34.0848 31.945 34.1475 32.2333 34.0713 32.496C33.7889 32.8867 33.544 33.3128 33.2736 33.6989C32.8177 34.1536 32.4538 34.6931 32.0144 35.1677C31.4803 35.7181 31.008 36.3143 30.4628 36.8602C29.8229 37.2267 29.3516 37.8038 28.7423 38.2168C28.4688 38.3367 28.2491 38.5552 27.959 38.6084C27.7182 38.6833 27.4534 38.73 27.203 38.7619H26.5464C26.3422 38.6922 26.1139 38.6833 25.9162 38.6084C25.7894 38.5347 25.6503 38.5025 25.5246 38.4409C25.2915 38.307 25.1249 38.1008 24.9097 37.9505C24.8591 37.8038 24.7265 37.698 24.6291 37.5733C24.5156 37.3228 24.3986 37.0723 24.3357 36.8044C24.3345 36.6739 24.2882 36.5604 24.266 36.44C23.7277 36.4842 23.1838 36.4952 22.6432 36.5527C22.0835 36.5239 21.523 36.5183 20.9644 36.5239C20.2373 36.4189 19.5089 36.3848 18.7828 36.2304C18.265 36.1121 17.7531 36.0007 17.2443 35.8384C16.8647 35.6739 16.4652 35.5394 16.0977 35.3771C16.0405 35.292 15.9157 35.2823 15.8593 35.2092C15.6794 35.3572 15.5779 35.5757 15.398 35.7544C15.2722 36.0887 15.0537 36.3821 14.8804 36.6926C14.8086 36.7785 14.7028 36.8611 14.6985 36.9715C14.5482 37.0964 14.4368 37.2232 14.2921 37.3635C14.0217 37.4685 13.7833 37.6569 13.4953 37.6845C13.4224 37.776 13.2338 37.6781 13.1597 37.7696C12.9115 37.8279 12.6642 37.7055 12.4183 37.7551C12.1182 37.6206 11.787 37.5313 11.5089 37.3911C11.0069 37.1061 10.5058 36.826 9.99821 36.5654C8.98435 35.8127 7.98653 35.0386 7.00541 34.2437C6.69746 33.9368 6.38971 33.6288 6.08176 33.3213C5.99792 33.076 5.9118 32.839 5.85889 32.5937C5.92176 32.4173 5.98257 32.2561 6.02677 32.0762C6.11164 32.0004 6.19112 31.8852 6.27828 31.8103C6.38868 31.5854 6.69559 31.5752 6.89419 31.4748C7.12162 31.3978 7.33993 31.403 7.56509 31.3625C7.83652 31.3613 8.03532 31.2102 8.26483 31.1672C8.28579 31.0834 8.3497 31.0328 8.37627 30.9431C8.42918 30.6497 8.29243 30.355 8.32003 30.0624C8.38726 29.8958 8.43707 29.7325 8.50202 29.5582C8.5485 29.4357 8.67862 29.312 8.78238 29.2512C8.86414 29.2224 8.88406 29.1454 8.99217 29.1531C9.21531 29.1319 9.43994 29.1319 9.66307 29.1531C9.87267 29.228 10.0845 29.2998 10.2921 29.3903C10.3946 29.4409 10.5525 29.4102 10.6838 29.4191C10.8119 29.3353 10.8791 29.1398 11.0061 29.0693C11.1607 28.7329 11.358 28.418 11.5932 28.1321C11.6604 28.1024 11.6749 28.0327 11.7476 28.0198C11.847 27.9636 11.8107 27.8188 11.8171 27.7681C11.7123 27.0893 11.7972 26.4064 11.7895 25.7253C11.8437 25.1835 11.902 24.6286 11.9993 24.1034C12.0941 23.6122 12.2267 23.1241 12.3203 22.6346C12.5235 22.0461 12.7827 21.458 13.0057 20.8863C14.1081 18.6472 15.3573 16.4865 16.5171 14.285C16.7334 13.977 16.889 13.6327 17.1042 13.3337V13.2775C17.0666 12.9861 17.2023 12.6927 17.1604 12.4101V10.0043C17.1032 9.5011 17.1505 8.99559 17.1042 8.49361C17.0953 8.43737 17.0843 8.38217 17.0766 8.32593V6.89905C17.1175 6.88805 17.0986 6.86274 17.1042 6.84385C17.0677 6.70378 17.1658 6.60438 17.1318 6.46534C17.2067 6.30535 17.2409 6.119 17.2719 5.9478C17.4381 5.59664 17.6549 5.27175 17.9154 4.98347C18.1536 4.74171 18.4176 4.54416 18.6714 4.32585C19.0123 4.04882 19.4041 3.84358 19.7903 3.64042C20.0484 3.55659 20.2713 3.41195 20.5728 3.36111C20.9248 3.24884 21.3012 3.20028 21.6639 3.20692Z" fill="black"/>
<path fill-rule="evenodd" clip-rule="evenodd" d="M23.2312 8.63431C23.3997 8.74139 23.551 8.86818 23.7342 8.96965C23.8745 9.28321 23.7291 9.62188 23.7618 9.94851C23.6099 10.3569 23.5049 10.8369 23.0912 11.0676C22.8471 11.071 22.5946 10.9782 22.364 10.9C22.5792 10.8259 22.8816 10.7167 22.9797 10.453C23.1021 10.2697 23.165 10.0533 23.175 9.83707C23.1551 9.57996 23.1065 9.30853 22.9509 9.09562C22.8193 8.94317 22.6435 8.83558 22.4479 8.78787C22.1243 8.72707 21.8747 8.93126 21.7203 9.13774C21.6433 9.28985 21.5638 9.44549 21.5383 9.61337C21.4742 9.97217 21.608 10.3484 21.7755 10.6487C21.6331 10.4974 21.3673 10.482 21.2868 10.2855C21.0542 9.75469 21.0639 9.15434 21.2727 8.63472C21.9058 8.42451 22.5954 8.38487 23.2312 8.63431ZM18.8943 8.61978C19.0267 8.71918 19.2309 8.69158 19.3424 8.82937C19.5425 9.33688 19.5814 9.89373 19.4538 10.4241C19.3015 10.4163 19.1714 10.6902 19.0907 10.5642C19.2629 10.1658 19.2573 9.68476 19.0211 9.305C18.8987 9.14604 18.731 8.97837 18.5312 8.96945C18.3809 9.03357 18.2176 9.04768 18.1118 9.19357C17.868 9.4762 17.8358 9.87878 17.8603 10.2287C17.9132 10.5796 18.1404 10.8919 18.4617 11.0398C18.3139 11.1226 18.1749 11.1932 18.0136 11.2351C17.8097 10.989 17.7036 10.6833 17.6075 10.382C17.4739 9.9483 17.5501 9.51335 17.5523 9.08088C17.7123 8.89993 17.9198 8.76629 18.1396 8.67581C18.3116 8.55151 18.6636 8.61875 18.8943 8.61978ZM23.3427 13.3893C23.5213 13.9104 23.6195 14.4487 23.7618 14.9841C23.9285 15.5788 24.2254 16.1229 24.4473 16.6913C24.6913 17.1549 24.9308 17.6206 25.1327 18.1172C25.1416 18.1371 25.1526 18.1535 25.1615 18.1734C25.648 19.2307 26.1261 20.2857 26.6158 21.3484C26.9161 22.1407 27.1877 22.9376 27.3996 23.7685C27.417 24.1908 27.5938 24.5994 27.5386 25.0273C27.3133 25.8318 27.1479 26.6594 26.8675 27.4473C26.8024 27.594 26.7509 27.7463 26.6303 27.8526C26.5729 27.8514 26.5751 27.9097 26.5177 27.9086C26.405 28.0072 26.3135 28.1186 26.2518 28.2589C26.1573 28.5332 26.1103 28.8215 26.1128 29.1116C25.9879 29.0962 25.9032 29.0168 25.8048 28.9572C25.5986 28.9041 25.4012 28.8335 25.1891 28.7893C24.9463 28.8194 24.5083 28.6414 24.4344 28.9441C24.3205 29.0917 24.2256 29.139 24.1264 29.294C23.9993 30.0671 23.9153 30.8466 23.8747 31.629C23.9023 32.1498 23.8152 32.673 23.8459 33.1959C23.5049 33.4221 23.1233 33.5834 22.7272 33.7135C22.4211 33.8096 22.1258 33.9243 21.7479 33.9376C21.4128 33.9915 21.0693 33.9959 20.7414 34.049C20.2372 34.0754 19.7329 34.0524 19.2309 34.0631C18.8667 34.0227 18.4683 33.9505 18.1396 33.9229C17.4345 33.7631 16.7391 33.5724 16.0981 33.2233C16.1091 32.9753 16.2427 32.6981 16.1533 32.4265C15.7824 31.3829 15.2638 30.4007 14.8391 29.3774C14.4595 28.4108 14.1671 27.4145 13.7894 26.4544C13.5568 25.9586 13.3427 25.4564 13.1737 24.9434C13.0777 24.8121 13.1727 24.6556 13.2024 24.5232C13.3404 23.8172 13.6481 23.1837 13.9021 22.5093C14.3203 21.6728 14.689 20.8132 15.1887 20.0197C15.4348 19.6103 15.4249 19.1346 15.5662 18.691C15.7305 18.1514 16.0055 17.6714 16.2371 17.1672C16.5847 16.6152 16.8374 16.0138 17.174 15.4599C17.472 14.843 17.6849 14.1468 17.9995 13.5863C18.1938 13.7639 18.4046 13.9063 18.6009 14.0895C18.868 14.2186 19.1527 14.351 19.4538 14.341C19.8645 14.4028 20.2739 14.3433 20.6852 14.341C21.2393 14.2495 21.7913 14.1248 22.2802 13.8523C22.6267 13.6767 22.9575 13.4462 23.3007 13.3061C23.3153 13.3341 23.3281 13.3617 23.3427 13.3893ZM13.0764 21.1946C13.0841 21.167 13.0961 21.1384 13.104 21.1108C13.0961 21.1382 13.0841 21.167 13.0764 21.1946Z" fill="white"/>
<path fill-rule="evenodd" clip-rule="evenodd" d="M20.5308 10.061C20.6966 10.1128 20.885 10.1294 21.0207 10.2288C21.0628 10.3062 21.1622 10.3558 21.1886 10.4384C21.747 10.7451 22.2922 11.062 22.9232 11.1932C23.2166 11.1589 23.5049 11.2836 23.7618 11.4316C23.8336 11.521 23.911 11.5926 23.9859 11.669C24.0199 11.8711 24.1548 12.032 24.0845 12.2704C24.0347 12.3905 24.0199 12.5441 23.9297 12.6346C23.8029 12.7448 23.7498 12.9004 23.6086 12.9975C23.0359 13.2623 22.5435 13.6441 21.9444 13.8793C21.3185 14.1517 20.5295 14.2148 19.7339 14.2565C19.5046 14.2159 19.2583 14.2179 19.0487 14.1451C18.8941 14.1088 18.7451 14.005 18.615 13.9486C18.2649 13.6495 17.8534 13.4121 17.5799 13.0262C17.5643 12.9058 17.4892 12.8805 17.4541 12.7744C17.3439 12.5881 17.3614 12.183 17.4398 11.9765C17.451 11.8442 17.5602 11.7371 17.5801 11.6267C18.0258 11.3177 18.549 11.1741 18.9926 10.8717C19.2112 10.5781 19.6229 10.5021 19.8325 10.2284C20.0618 10.168 20.2846 9.97505 20.5308 10.061Z" fill="#E7BF5D"/>
<path fill-rule="evenodd" clip-rule="evenodd" d="M23.2589 12.4381C22.9795 12.7307 22.5882 12.8012 22.2238 12.928C21.3462 13.0737 20.47 13.1874 19.5941 13.2358C19.2214 13.2569 18.8479 13.2569 18.4752 13.2358C18.2278 13.1951 17.9863 13.0758 17.7754 12.9423C17.6707 12.8122 17.5107 12.6917 17.4963 12.5219C17.7943 12.6487 17.9444 13.0108 18.3073 13.0395C19.0712 13.1874 19.8357 13.0637 20.6014 13.0119C21.5051 12.9347 22.4973 12.6886 23.2589 12.4381Z" fill="black"/>
<path fill-rule="evenodd" clip-rule="evenodd" d="M17.0767 6.89947C17.0845 6.88079 17.0953 6.86315 17.1043 6.84427C17.0987 6.86315 17.1175 6.88847 17.0767 6.89947ZM22.8527 7.71065C22.9641 7.73493 23.0295 7.85197 23.1473 7.85072C23.2729 7.98519 23.3856 8.12879 23.5105 8.27011C23.5568 8.50938 23.7597 8.70922 23.7342 8.96965C23.551 8.86817 23.3999 8.74118 23.2312 8.6343C22.5953 8.38487 21.9058 8.42451 21.2724 8.6343C21.2911 8.47867 21.4333 8.35727 21.4685 8.21491C21.6233 7.99204 21.8585 7.82312 22.1122 7.72497C22.3372 7.58365 22.6086 7.67081 22.8527 7.71065ZM18.5587 7.92128C18.6658 7.95116 18.732 8.05928 18.8391 8.07463C18.9727 8.23151 19.1315 8.36931 19.2309 8.55026C19.3048 8.62849 19.2838 8.75093 19.3423 8.82937C19.2309 8.69137 19.0267 8.71897 18.8943 8.61978C18.6635 8.61853 18.3116 8.5513 18.1396 8.67601C17.9198 8.76649 17.7123 8.90013 17.5523 9.08109V8.88581C17.607 8.65229 17.6916 8.4268 17.804 8.21491C17.9308 8.13315 17.9839 7.9908 18.1396 7.94888C18.2288 7.87708 18.4407 7.908 18.5587 7.92128ZM17.1043 8.49402C17.0767 8.43779 17.0767 8.38259 17.0767 8.32635C17.0845 8.38259 17.0953 8.43779 17.1043 8.49402ZM17.1043 13.3341C17.0767 13.3142 17.0767 13.2976 17.1043 13.2779V13.3341ZM25.1613 18.1732C25.1524 18.1535 25.1414 18.1369 25.1324 18.117C25.1735 18.1157 25.1557 18.1533 25.1613 18.1732ZM19.6501 21.796C19.6777 21.9483 19.6677 22.1303 19.7063 22.2573C19.5144 23.4109 19.3853 24.5583 19.2726 25.726C19.1655 26.6861 19.1944 27.6496 19.0344 28.6086C19.0068 28.6924 18.9449 28.8038 18.8524 28.8599C18.7729 28.879 18.7287 28.8335 18.6988 28.7893C18.6503 28.6868 18.5994 28.6094 18.6007 28.4683C18.5434 28.2595 18.5787 28.0576 18.5731 27.8526C18.6094 26.5612 18.753 25.2736 18.9086 23.9924C19.0124 23.3069 19.0566 22.6172 19.2728 21.9496C19.3035 21.8593 19.3623 21.7811 19.4407 21.7267C19.4936 21.7134 19.5048 21.6871 19.5664 21.6979C19.5938 21.7319 19.6227 21.762 19.6501 21.796Z" fill="#C6C7C9"/>
<path fill-rule="evenodd" clip-rule="evenodd" d="M12.699 27.825C12.8468 27.8789 12.9373 28.0159 13.0765 28.0908C13.2133 28.4285 13.4021 28.7186 13.5378 29.0549C13.9472 30.1214 14.2872 31.2046 14.6291 32.3007C14.6555 32.4852 14.7416 32.635 14.7682 32.8317C14.8024 33.6836 15.0355 34.5191 15.0485 35.3775C15.0054 35.5871 15.0849 35.8752 14.979 36.0354C14.8939 36.3763 14.724 36.6575 14.5586 36.9721C14.3843 37.1321 14.2452 37.3153 13.9991 37.3782C13.8721 37.4544 13.7208 37.5108 13.5521 37.5461C13.2485 37.637 12.8524 37.664 12.4884 37.6299C12.2313 37.5351 11.9576 37.4602 11.7059 37.3641C11.152 37.0231 10.5604 36.7415 9.99863 36.4404C9.06169 35.7013 8.08388 34.9781 7.17371 34.2312C6.83816 33.8903 6.5026 33.5516 6.16622 33.2107C6.12306 33.0154 6.04918 32.8164 5.97095 32.6367C6.03279 32.4248 6.13758 32.226 6.19506 32.0206C6.28554 31.9525 6.38266 31.8423 6.44657 31.7834C6.66841 31.7008 6.87925 31.5738 7.11747 31.5592C7.36795 31.4908 7.69686 31.5296 7.92845 31.419C8.10297 31.3233 8.36776 31.3208 8.43292 31.1114C8.45492 31.021 8.49019 30.9591 8.54436 30.8873C8.529 30.7074 8.47588 30.5233 8.47484 30.3422C8.46156 30.232 8.43064 30.0309 8.50244 29.9506C8.5014 29.763 8.66036 29.6163 8.68443 29.4471C8.77719 29.3965 8.85106 29.3222 8.96354 29.294C9.11254 29.3058 9.23518 29.211 9.38417 29.2652C9.53193 29.2894 9.68424 29.2639 9.83096 29.349C9.98327 29.4413 10.1962 29.426 10.3354 29.5451C10.4435 29.5719 10.5672 29.5528 10.6841 29.5584C10.8596 29.4169 10.9432 29.2382 11.1178 29.0971C11.2358 28.8729 11.3473 28.6455 11.4963 28.4392C11.5701 28.327 11.6563 28.2317 11.7478 28.1323C11.8781 28.0829 11.9565 27.9723 12.0833 27.9362C12.2554 27.8345 12.454 27.7696 12.6571 27.7683C12.6571 27.8051 12.6914 27.7905 12.699 27.825ZM25.4407 28.9858C25.5644 28.9935 25.6964 29.0608 25.8047 29.0832C25.8886 29.1269 25.9386 29.2222 26.0564 29.223C26.0982 29.5555 26.0079 29.8954 26.0982 30.2305C26.1301 30.3837 26.2096 30.5341 26.2806 30.6642C26.4549 30.8871 26.7329 30.9954 26.9371 31.1818C27.205 31.3021 27.4678 31.4545 27.7624 31.5028C28.0011 31.5661 28.4003 31.6288 28.6299 31.5028C28.6996 31.4457 28.8067 31.419 28.8685 31.3773C29.0416 31.2195 29.1594 31.0353 29.3022 30.8597C29.4919 30.4216 29.7347 30.0097 29.9455 29.5874C30.0237 29.6181 30.0403 29.7119 30.1134 29.7553C30.3307 30.0896 30.2337 30.5408 30.4761 30.8597C30.5836 30.9282 30.6463 31.0782 30.7841 31.0838C30.9775 31.1191 31.2145 31.0697 31.3855 31.1255C31.9447 31.0095 32.5224 30.9857 33.0919 31.0417C33.2726 31.0859 33.4405 31.2241 33.609 31.2658C33.7493 31.4036 33.8684 31.5804 34.001 31.7128C34.0054 31.9795 33.9954 32.2546 33.9172 32.5105C33.6204 32.9357 33.372 33.3657 33.0786 33.7828C32.5687 34.2655 32.1427 34.8523 31.7079 35.3778C31.3282 35.709 31.0335 36.1427 30.7004 36.4969C30.5691 36.6172 30.4325 36.7218 30.3089 36.8609C30.1346 36.9395 30.0308 37.1037 29.8471 37.1678C29.4985 37.4913 29.1001 37.7341 28.7703 38.0914C28.5608 38.1786 28.3622 38.3112 28.1546 38.4137C27.6788 38.5839 27.1669 38.6598 26.6724 38.6513C26.4186 38.5552 26.1395 38.6123 25.889 38.4689C25.7555 38.3886 25.5931 38.3523 25.4696 38.2593C25.2081 38.0587 24.9796 37.8146 24.7701 37.5598C24.6696 37.4131 24.6233 37.2792 24.5605 37.1128C24.3486 36.2244 24.1807 35.3352 23.9865 34.441C24.0006 33.4115 23.9512 32.3289 24.0282 31.3501C24.0691 31.0587 24.0018 30.7024 24.0848 30.4553C24.1176 30.0525 24.2324 29.652 24.2664 29.2523C24.399 29.1639 24.4621 29.0282 24.5735 28.9159C24.8624 28.9383 25.232 28.8576 25.4407 28.9858ZM15.105 33.9791C15.3532 34.1887 15.6908 34.286 15.8178 34.6228C15.8574 34.7286 15.9162 34.8631 15.9016 34.986C15.6412 35.33 15.2285 35.5863 15.1469 36.0495C15.2307 35.3389 15.1382 34.628 15.0068 33.9229C15.0241 33.9494 15.0948 33.9349 15.105 33.9791Z" fill="#E7BF5D"/>
<path fill-rule="evenodd" clip-rule="evenodd" d="M13.0763 21.1946C13.0707 21.2168 13.0674 21.2422 13.062 21.2644C13.0674 21.242 13.0707 21.2168 13.0763 21.1946ZM12.9087 21.7267C12.8999 21.7454 12.8887 21.762 12.8379 21.8083C12.8887 21.762 12.8997 21.7454 12.9087 21.7267ZM13.0475 21.2785C13.0419 21.3007 13.0398 21.326 13.0342 21.3482C13.0398 21.3258 13.0421 21.3007 13.0475 21.2785ZM13.0201 21.3623C13.0147 21.3845 13.0114 21.4098 13.0058 21.432C13.0112 21.4098 13.0145 21.3847 13.0201 21.3623ZM12.9925 21.4462C12.9869 21.4684 12.9836 21.4937 12.9782 21.5159C12.9836 21.4937 12.9869 21.4686 12.9925 21.4462Z" fill="white"/>
<path fill-rule="evenodd" clip-rule="evenodd" d="M12.7123 23.3069C12.699 23.3069 12.721 23.4379 12.7333 23.574C12.7476 23.5651 12.7544 23.6931 12.7476 23.8297C12.7256 23.6894 12.7069 23.5605 12.7123 23.5728C12.7044 23.5472 12.6891 23.4524 12.6814 23.3775C12.6648 23.3013 12.6507 23.1822 12.6637 23.2627C12.6374 23.1411 12.6714 22.9668 12.6747 22.8222C12.6847 22.7593 12.6835 22.817 12.7167 22.3565C12.7698 22.006 12.8735 21.6404 13.3436 20.5192C12.8669 21.795 12.8161 22.0015 12.8217 22.0419C12.7897 22.1172 12.7675 22.3754 12.7521 22.5497C12.732 22.6921 12.7001 23.0675 12.7123 23.3069Z" fill="white"/>
<path fill-rule="evenodd" clip-rule="evenodd" d="M27.8326 19.9643C27.9798 20.3571 27.9874 20.8172 28.0138 21.1944C28.0682 21.8645 28.0125 22.5377 28.0138 23.2084C27.9067 24.3285 27.7544 25.4553 27.5108 26.5656C27.4896 26.7156 27.379 26.8258 27.3429 26.9576C27.3153 26.9883 27.2866 26.9883 27.259 26.9576C27.2854 26.8648 27.3416 26.8063 27.3705 26.7189C27.5147 26.0777 27.6299 25.4215 27.749 24.7759C27.8272 24.275 27.8382 23.7736 27.8745 23.2783L27.9021 23.2507C27.8648 22.9008 27.965 22.5499 27.9297 22.2013C27.9706 22.1737 27.9528 22.1264 27.9586 22.0898C27.9862 21.614 27.8779 21.1373 27.9024 20.6628C27.8806 20.2676 27.7017 19.8968 27.6652 19.5162C27.6089 19.1408 27.441 18.7945 26.9413 17.4514C27.3483 18.4535 27.3649 18.4668 27.3682 18.4701C27.4323 18.6654 27.5514 18.8233 27.5813 19.013C27.6863 19.2954 27.7697 19.6509 27.8326 19.9643ZM12.9637 21.5302C12.9583 21.552 12.956 21.5777 12.9506 21.5999C12.956 21.5775 12.9583 21.552 12.9637 21.5302ZM12.9782 21.5159C12.9728 21.521 12.9695 21.5248 12.9639 21.53L12.9782 21.5159ZM12.9506 21.5999C12.945 21.6063 12.9419 21.6084 12.9363 21.614C12.9417 21.6084 12.945 21.6063 12.9506 21.5999Z" fill="white"/>
</g>
<defs>
<clipPath id="clip0_18_169">
<rect width="40" height="40" fill="white" transform="translate(0 0.984009)"/>
</clipPath>
</defs>
</svg>
