<svg width="40" height="41" viewBox="0 0 40 41" fill="none" xmlns="http://www.w3.org/2000/svg">
<g clip-path="url(#clip0_18_99)">
<path d="M18.6915 1.01524C18.6056 1.02305 18.3322 1.05039 18.0861 1.06992C12.4109 1.58159 7.09501 4.64379 3.72815 9.35036C1.85334 11.9673 0.654235 14.9358 0.201154 18.08C0.0410137 19.1775 0.0214844 19.5017 0.0214844 20.9899C0.0214844 22.478 0.0410137 22.8022 0.201154 23.8997C1.28699 31.4029 6.62631 37.707 13.8678 40.0427C15.1645 40.4606 16.5316 40.7457 18.0861 40.9176C18.6915 40.984 21.3085 40.984 21.9139 40.9176C24.5972 40.6208 26.8704 39.9568 29.1124 38.8123C29.4561 38.6366 29.5225 38.5897 29.4756 38.5506C29.4444 38.5272 27.9797 36.5626 26.2221 34.1878L23.0271 29.8718L19.0235 23.9466C16.8206 20.6891 15.0083 18.0253 14.9927 18.0253C14.9771 18.0214 14.9614 20.6539 14.9536 23.8685C14.9419 29.4968 14.938 29.7234 14.8677 29.8562C14.7661 30.0476 14.688 30.1257 14.524 30.2116C14.399 30.2741 14.2896 30.2858 13.6998 30.2858H13.0241L12.8445 30.1726C12.7273 30.0983 12.6413 30.0007 12.5828 29.8874L12.5007 29.7117L12.5085 21.8804L12.5203 14.0452L12.6413 13.8929C12.7038 13.8109 12.8366 13.7054 12.9304 13.6546C13.0905 13.5765 13.153 13.5687 13.8287 13.5687C14.6255 13.5687 14.7583 13.5999 14.9653 13.8265C15.0239 13.889 17.1917 17.1543 19.7852 21.0875C22.3787 25.0207 25.9252 30.3913 27.6672 33.0277L30.831 37.8202L30.9911 37.7148C32.409 36.793 33.9088 35.4806 35.0962 34.1136C37.6233 31.2115 39.252 27.6728 39.7989 23.8997C39.959 22.8022 39.9785 22.478 39.9785 20.9899C39.9785 19.5017 39.959 19.1775 39.7989 18.08C38.713 10.5768 33.3737 4.27273 26.1322 1.93703C24.855 1.523 23.4958 1.23787 21.9725 1.06602C21.5975 1.02696 19.0157 0.983993 18.6915 1.01524ZM26.8704 13.1C27.0579 13.1937 27.2102 13.3734 27.2649 13.5609C27.2962 13.6624 27.304 15.8341 27.2962 20.7282L27.2844 27.7509L26.0463 25.8527L24.8042 23.9544V18.8494C24.8042 15.549 24.8198 13.6937 24.8433 13.6039C24.9058 13.3851 25.0425 13.2133 25.23 13.1117C25.3901 13.0297 25.4487 13.0219 26.0619 13.0219C26.64 13.0219 26.7415 13.0297 26.8704 13.1Z" fill="black"/>
<path d="M30.6357 37.9062C30.499 37.9921 30.456 38.0507 30.5771 37.9843C30.6631 37.9335 30.8037 37.828 30.7802 37.8241C30.7685 37.8241 30.7021 37.8632 30.6357 37.9062ZM30.3662 38.0819C30.2959 38.1366 30.2959 38.1405 30.3818 38.0976C30.4287 38.0741 30.4678 38.0468 30.4678 38.039C30.4678 38.0077 30.4482 38.0155 30.3662 38.0819ZM30.1709 38.1991C30.1006 38.2538 30.1006 38.2577 30.1865 38.2147C30.2334 38.1913 30.2725 38.164 30.2725 38.1561C30.2725 38.1249 30.2529 38.1327 30.1709 38.1991ZM29.9756 38.3163C29.9053 38.371 29.9053 38.3749 29.9912 38.3319C30.0381 38.3085 30.0772 38.2811 30.0772 38.2733C30.0772 38.2421 30.0576 38.2499 29.9756 38.3163ZM29.6788 38.4725C29.5304 38.5506 29.5382 38.5819 29.6866 38.5077C29.753 38.4725 29.8038 38.4374 29.8038 38.4296C29.8038 38.4022 29.7999 38.4061 29.6788 38.4725Z" fill="black"/>
</g>
<defs>
<clipPath id="clip0_18_99">
<rect width="40" height="40" fill="white" transform="translate(0 0.983994)"/>
</clipPath>
</defs>
</svg>
