<svg width="40" height="40" viewBox="0 0 40 40" fill="none" xmlns="http://www.w3.org/2000/svg">
<g clip-path="url(#clip0_8_121)">
<path d="M12 12L13.0809 11.2193C12.7423 10.7505 12.1401 10.5534 11.5898 10.7313C11.0395 10.9093 10.6667 11.4217 10.6667 12H12ZM20 37.3333C10.4271 37.3333 2.66667 29.5731 2.66667 20H0C0 31.0456 8.95429 40 20 40V37.3333ZM37.3333 20C37.3333 29.5731 29.5731 37.3333 20 37.3333V40C31.0456 40 40 31.0456 40 20H37.3333ZM20 2.66667C29.5731 2.66667 37.3333 10.4271 37.3333 20H40C40 8.95429 31.0456 0 20 0V2.66667ZM20 0C8.95429 0 0 8.95429 0 20H2.66667C2.66667 10.4271 10.4271 2.66667 20 2.66667V0ZM13.3333 32V12H10.6667V32H13.3333ZM10.9191 12.7807L28.2525 36.7805L30.4141 35.2195L13.0809 11.2193L10.9191 12.7807ZM26.6667 10.6667V26.6667H29.3333V10.6667H26.6667Z" fill="#2D2F4A"/>
</g>
<defs>
<clipPath id="clip0_8_121">
<rect width="40" height="40" fill="white"/>
</clipPath>
</defs>
</svg>
