<svg width="20" height="20" viewBox="0 0 20 20" fill="none" xmlns="http://www.w3.org/2000/svg">
<path d="M9.345 0.00510417C9.30167 0.00927083 9.165 0.0234375 9.04167 0.0326042C6.20167 0.289271 3.54167 1.82177 1.855 4.1776C0.923584 5.47071 0.3181 6.96955 0.09 8.54677C0.01 9.09677 0 9.25844 0 10.0034C0 10.7484 0.01 10.9109 0.09 11.4601C0.633333 15.2159 3.30667 18.3709 6.93083 19.5401C7.58 19.7493 8.26417 19.8918 9.04167 19.9784C9.345 20.0118 10.655 20.0118 10.9583 19.9784C12.3008 19.8293 13.4392 19.4968 14.5608 18.9243C14.7333 18.8368 14.7667 18.8126 14.7433 18.7934C14.7267 18.7818 13.9942 17.7984 13.1142 16.6101L11.515 14.4493L9.51167 11.4834C8.8451 10.4914 8.17231 9.50365 7.49333 8.5201C7.48583 8.5176 7.47833 9.8351 7.47417 11.4451C7.46833 14.2618 7.46583 14.3751 7.43083 14.4418C7.3967 14.5196 7.33579 14.5826 7.25917 14.6193C7.19667 14.6509 7.1425 14.6568 6.84667 14.6568H6.50833L6.41833 14.6001C6.36264 14.5649 6.31745 14.5154 6.2875 14.4568L6.24583 14.3693L6.25 10.4493L6.25583 6.5276L6.31667 6.45094C6.35762 6.40301 6.40671 6.36267 6.46167 6.33177C6.54167 6.2926 6.5725 6.28927 6.91167 6.28927C7.31 6.28927 7.37667 6.30427 7.48 6.4176C7.50917 6.44927 8.59417 8.08427 9.8925 10.0526L13.8375 16.0293L15.4208 18.4276L15.5017 18.3751C16.2637 17.8685 16.9545 17.2623 17.5558 16.5726C18.816 15.1303 19.6334 13.3552 19.91 11.4601C19.99 10.9101 20 10.7484 20 10.0034C20 9.25844 19.99 9.09677 19.91 8.54677C19.3667 4.79177 16.6933 1.63594 13.0692 0.466771C12.3918 0.251412 11.6944 0.105385 10.9875 0.0309375C10.7992 0.0109375 9.5075 -0.0107292 9.34583 0.0059375L9.345 0.00510417ZM13.4392 6.0551C13.4856 6.07851 13.527 6.11088 13.5609 6.15036C13.5948 6.18983 13.6206 6.23563 13.6367 6.2851C13.6517 6.3351 13.6558 7.4226 13.6517 9.8726L13.6458 13.3876L13.0267 12.4376L12.405 11.4876V8.9326C12.405 7.2801 12.4125 6.35177 12.4242 6.30677C12.438 6.25472 12.4623 6.20602 12.4956 6.16362C12.5288 6.12123 12.5703 6.08601 12.6175 6.0601C12.6983 6.01844 12.7275 6.0151 13.0342 6.0151C13.3233 6.0151 13.3742 6.0201 13.4392 6.0551Z" fill="#1A1A1A"/>
</svg>
