<svg width="40" height="40" viewBox="0 0 40 40" fill="none" xmlns="http://www.w3.org/2000/svg">
<path d="M18.3694 0.50781C19.3569 -0.0574378 20.6431 -0.059991 21.6298 0.50781C26.5936 3.31263 31.559 6.11306 36.522 8.91958C37.4555 9.4454 38.0799 10.4843 38.0704 11.5599V28.4348C38.0773 29.5549 37.3912 30.6186 36.4064 31.1325C31.4589 33.9219 26.5139 36.7146 21.5673 39.504C20.5593 40.0803 19.2472 40.0359 18.2708 39.4123C16.7875 38.5525 15.3017 37.6969 13.8183 36.8379C13.5152 36.6572 13.1735 36.5133 12.9594 36.2194C13.1487 35.9644 13.487 35.9326 13.7619 35.8213C14.381 35.6244 14.9497 35.3084 15.5185 35.0017C15.6623 34.9033 15.8379 34.941 15.9758 35.0291C17.2441 35.7563 18.5013 36.5047 19.7739 37.225C20.0454 37.3817 20.3203 37.1736 20.5524 37.0443C25.4074 34.3003 30.2684 31.5667 35.1226 28.8219C35.3024 28.7353 35.4019 28.5444 35.3873 28.3474C35.3907 22.7807 35.3881 17.2131 35.389 11.6464C35.4095 11.4228 35.2802 11.2173 35.078 11.1258C30.1477 8.34923 25.2199 5.56838 20.2904 2.79107C20.205 2.73236 20.1038 2.70085 20.0001 2.7007C19.8965 2.70055 19.7952 2.73176 19.7097 2.79022C14.7802 5.56838 9.8532 8.35178 4.9237 11.1282C4.72228 11.2199 4.5871 11.422 4.61108 11.6464C4.61193 17.2131 4.61108 22.7807 4.61108 28.3482C4.60253 28.4444 4.62364 28.5408 4.67157 28.6246C4.7195 28.7083 4.79195 28.7754 4.87916 28.8167C6.19462 29.5627 7.51179 30.3034 8.8281 31.0468C9.56966 31.446 10.4802 31.6831 11.2972 31.3773C12.0182 31.1187 12.5236 30.383 12.5098 29.6175C12.5166 24.0833 12.5064 18.5482 12.5149 13.0149C12.4969 12.7692 12.7299 12.5662 12.9688 12.5894C13.6009 12.5851 14.2338 12.5809 14.8658 12.5911C15.1297 12.5851 15.3112 12.8497 15.2786 13.0972C15.276 18.6664 15.2854 24.2358 15.2743 29.805C15.276 31.2892 14.6663 32.9043 13.2933 33.6305C11.602 34.5067 9.5115 34.3209 7.84058 33.4807C6.39406 32.7587 5.01363 31.9067 3.59278 31.1332C2.6054 30.6221 1.92271 29.5542 1.92966 28.4349V11.5599C1.9193 10.462 2.56852 9.40426 3.53108 8.88611C8.47774 6.09448 13.4236 3.30072 18.3694 0.50781Z" fill="#8CC84B"/>
<path d="M22.6848 12.1972C24.8423 12.0583 27.1519 12.1149 29.0933 13.1778C30.5965 13.9922 31.4298 15.7016 31.4563 17.3715C31.4143 17.5968 31.1789 17.721 30.9638 17.7056C30.3379 17.7047 29.7118 17.7141 29.0858 17.7013C28.8203 17.7115 28.666 17.4667 28.6326 17.2319C28.4528 16.4329 28.017 15.6416 27.265 15.2562C26.1105 14.6782 24.7719 14.7073 23.5131 14.7193C22.5941 14.7681 21.6058 14.8477 20.8272 15.3881C20.2295 15.7975 20.048 16.6239 20.2613 17.2894C20.4624 17.7673 21.0141 17.9214 21.4654 18.0636C24.0654 18.7436 26.8206 18.6759 29.3709 19.5708C30.4268 19.9356 31.4597 20.6448 31.8212 21.7504C32.2939 23.2321 32.0867 25.0031 31.0325 26.1926C30.1776 27.1715 28.9325 27.7043 27.6907 27.9936C26.0386 28.362 24.3241 28.3714 22.6464 28.2078C21.0688 28.028 19.4271 27.6135 18.2092 26.5386C17.1678 25.6343 16.6592 24.2254 16.7097 22.8656C16.7217 22.6359 16.9504 22.4758 17.1704 22.4946C17.8007 22.4895 18.4311 22.4878 19.0614 22.4955C19.3132 22.4775 19.4999 22.6951 19.5128 22.9324C19.6291 23.6936 19.9152 24.4926 20.579 24.944C21.8602 25.7705 23.4677 25.7139 24.9346 25.737C26.1499 25.6831 27.5142 25.6668 28.506 24.8636C29.0292 24.4054 29.1843 23.6389 29.0429 22.9795C28.8897 22.4227 28.3072 22.1633 27.8071 21.9936C25.2404 21.1817 22.4545 21.4763 19.9126 20.5582C18.8807 20.1935 17.8829 19.504 17.4864 18.4439C16.9332 16.9434 17.1867 15.0875 18.3514 13.9382C19.487 12.7949 21.1263 12.3548 22.6848 12.1972Z" fill="#8CC84B"/>
</svg>
