<svg width="33" height="38" viewBox="0 0 33 38" fill="none" xmlns="http://www.w3.org/2000/svg">
<path d="M16.2334 37.3464C15.7396 37.3466 15.2544 37.2167 14.8267 36.9699L10.3503 34.3199C9.68229 33.946 10.0078 33.8139 10.2288 33.7368C10.9393 33.5173 11.6196 33.2099 12.2538 32.8216C12.3069 32.7971 12.3654 32.7865 12.4237 32.7908C12.4821 32.7952 12.5383 32.8143 12.5872 32.8465L16.0268 34.8899C16.0909 34.9238 16.1622 34.9415 16.2347 34.9415C16.3072 34.9415 16.3785 34.9238 16.4426 34.8899L29.856 27.1478C29.9187 27.1102 29.9706 27.0569 30.0066 26.9932C30.0426 26.9295 30.0614 26.8575 30.0612 26.7843V11.2975C30.0612 11.2232 30.0421 11.1501 30.0057 11.0853C29.9693 11.0205 29.9168 10.9661 29.8533 10.9275L16.44 3.19195C16.3767 3.15632 16.3053 3.13761 16.2327 3.13761C16.1602 3.13761 16.0888 3.15632 16.0255 3.19195L2.62 10.9301C2.55606 10.9679 2.50296 11.0216 2.46586 11.086C2.42875 11.1504 2.4089 11.2232 2.40821 11.2975V26.7778C2.4084 26.8508 2.42798 26.9224 2.46497 26.9854C2.50195 27.0483 2.55501 27.1003 2.6187 27.136L6.29757 29.2591C8.29127 30.2553 9.51233 29.0813 9.51233 27.9021V12.6179C9.51233 12.5664 9.52248 12.5154 9.54219 12.4678C9.5619 12.4202 9.59079 12.377 9.62721 12.3406C9.66363 12.3042 9.70686 12.2753 9.75445 12.2556C9.80203 12.2359 9.85303 12.2257 9.90454 12.2257H11.6041C11.7081 12.2257 11.8079 12.267 11.8814 12.3406C11.955 12.4141 11.9963 12.5139 11.9963 12.6179V27.9034C11.9963 30.5639 10.5478 32.0869 8.02457 32.0869C6.93605 32.1059 5.86459 31.8148 4.93531 31.2476L1.4094 29.2251C0.981359 28.9759 0.62619 28.6187 0.379351 28.1892C0.132512 27.7598 0.00263816 27.2731 0.00269484 26.7778V11.2975C0.00142255 10.8014 0.130747 10.3137 0.377673 9.88341C0.624599 9.45313 0.980426 9.09542 1.4094 8.84622L14.8241 1.1015C15.2562 0.865089 15.7408 0.74118 16.2334 0.74118C16.726 0.74118 17.2106 0.865089 17.6427 1.1015L31.0561 8.84622C31.4841 9.095 31.8393 9.45168 32.0864 9.88066C32.3335 10.3096 32.4637 10.7959 32.4641 11.291V26.7778C32.4634 27.2731 32.333 27.7596 32.086 28.189C31.839 28.6183 31.4839 28.9755 31.0561 29.2251L17.6427 36.9699C17.2142 37.2171 16.7281 37.347 16.2334 37.3464Z" fill="#00D486"/>
<path d="M13.6892 21.5968C13.6892 21.4928 13.7305 21.393 13.8041 21.3194C13.8776 21.2459 13.9774 21.2046 14.0814 21.2046H15.8163C15.909 21.2049 15.9985 21.238 16.0691 21.2981C16.1397 21.3581 16.1868 21.4413 16.2019 21.5327C16.4634 23.2989 17.2478 24.1892 20.7946 24.1892C23.6198 24.1892 24.8239 23.5499 24.8239 22.0504C24.8239 21.1863 24.4827 20.5444 20.0913 20.1142C16.4203 19.7508 14.1507 18.9376 14.1507 16.0039C14.1507 13.2977 16.432 11.6832 20.256 11.6832C24.5533 11.6832 26.6803 13.1748 26.9496 16.3752C26.9537 16.4287 26.9469 16.4824 26.9294 16.533C26.912 16.5837 26.8843 16.6303 26.8482 16.6698C26.812 16.7094 26.7682 16.7411 26.7193 16.7631C26.6704 16.7851 26.6175 16.7968 26.564 16.7975H24.8173C24.7297 16.7963 24.645 16.7657 24.5768 16.7108C24.5085 16.6558 24.4607 16.5796 24.4408 16.4942C24.0238 14.6365 23.0027 14.0429 20.2573 14.0429C17.172 14.0429 16.8138 15.1176 16.8138 15.9229C16.8138 16.8982 17.2373 17.1832 21.4026 17.7336C25.5246 18.2787 27.483 19.0501 27.483 21.9471C27.483 24.8704 25.0461 26.5438 20.7959 26.5438C14.9194 26.5516 13.6892 23.8572 13.6892 21.5968Z" fill="#00D486"/>
</svg>
