<svg width="19" height="20" viewBox="0 0 19 20" fill="none" xmlns="http://www.w3.org/2000/svg">
<path d="M9.16667 19.9633C8.88167 19.9633 8.61667 19.8892 8.36917 19.7608L5.845 18.3125C5.46583 18.1108 5.65583 18.0375 5.77 18.0008C6.28167 17.8358 6.37667 17.7992 6.90833 17.505C6.965 17.4683 7.04167 17.4867 7.09833 17.5233L9.03417 18.6425C9.10917 18.6792 9.205 18.6792 9.26167 18.6425L16.8342 14.4058C16.9092 14.3692 16.9475 14.2958 16.9475 14.2042V5.74917C16.9475 5.6575 16.91 5.58417 16.8342 5.5475L9.26167 1.33C9.18583 1.29333 9.09083 1.29333 9.03417 1.33L1.46167 5.5475C1.38583 5.58417 1.3475 5.67583 1.3475 5.74917V14.2042C1.3475 14.2775 1.38583 14.3692 1.46167 14.4058L3.53 15.5617C4.65 16.1117 5.35167 15.47 5.35167 14.8283V6.48333C5.35167 6.37333 5.44667 6.26333 5.58 6.26333H6.5475C6.66167 6.26333 6.775 6.355 6.775 6.48333V14.8275C6.775 16.2767 5.95917 17.12 4.53583 17.12C4.09917 17.12 3.7575 17.12 2.79 16.6617L0.7975 15.5617C0.557403 15.4296 0.356903 15.2359 0.216706 15.0005C0.0765089 14.7651 0.00169823 14.4965 0 14.2225V5.7675C0 5.2175 0.303333 4.70417 0.7975 4.42917L8.37 0.191666C8.61653 0.0652373 8.88961 -0.000701904 9.16667 -0.000701904C9.44372 -0.000701904 9.7168 0.0652373 9.96333 0.191666L17.5367 4.42833C18.03 4.70333 18.3333 5.21667 18.3333 5.76667V14.2217C18.3333 14.7717 18.03 15.285 17.5367 15.5608L9.96333 19.7967C9.71189 19.9057 9.44072 19.9618 9.16667 19.9617V19.9633ZM11.5008 14.1492C8.18 14.1492 7.49667 12.6825 7.49667 11.435C7.49667 11.325 7.59167 11.215 7.72417 11.215H8.71083C8.825 11.215 8.91917 11.2883 8.91917 11.3983C9.07167 12.37 9.50833 12.8467 11.52 12.8467C13.1142 12.8467 13.7975 12.4983 13.7975 11.6733C13.7975 11.1967 13.6075 10.8483 11.1217 10.61C9.0525 10.4075 7.7625 9.96833 7.7625 8.3725C7.7625 6.88667 9.0525 6.00583 11.2167 6.00583C13.6458 6.00583 14.8417 6.81333 14.9933 8.57417C14.9916 8.63378 14.9716 8.69141 14.9358 8.73917C14.8983 8.77583 14.8417 8.8125 14.7842 8.8125H13.7975C13.7496 8.81134 13.7033 8.79461 13.6657 8.76484C13.6282 8.73508 13.6013 8.69389 13.5892 8.6475C13.3608 7.63917 12.7725 7.30833 11.2167 7.30833C9.47 7.30833 9.26167 7.895 9.26167 8.335C9.26167 8.8675 9.50833 9.0325 11.8617 9.32583C14.1958 9.61917 15.2967 10.0408 15.2967 11.6175C15.2775 13.2325 13.9117 14.1492 11.5008 14.1492Z" fill="#1A1A1A"/>
</svg>
