<svg width="19" height="19" viewBox="0 0 19 19" fill="none" xmlns="http://www.w3.org/2000/svg">
<path d="M13.1706 0C12.437 0.00538332 11.7074 0.109085 11.0014 0.308333L10.9514 0.323333C10.5067 0.24717 10.0567 0.205103 9.60558 0.1975C8.67808 0.181667 7.88058 0.4 7.23891 0.764167C6.60558 0.550833 5.29224 0.183333 3.90808 0.256667C2.94391 0.3075 1.89224 0.591667 1.11308 1.39C0.335578 2.18833 -0.0752554 3.42333 0.0114113 5.10417C0.0347446 5.56833 0.170578 6.32417 0.397245 7.30417C0.622245 8.28333 0.940578 9.42917 1.33641 10.475C1.73224 11.5217 2.16641 12.4617 2.84474 13.1C3.18308 13.42 3.64891 13.6892 4.19808 13.6667C4.58391 13.6517 4.93308 13.4875 5.23391 13.245C5.38058 13.4325 5.53724 13.5142 5.67974 13.59C5.85891 13.685 6.03391 13.75 6.21475 13.7933C6.53974 13.8717 7.09725 13.9767 7.74808 13.8692C7.97058 13.8333 8.20475 13.7633 8.43808 13.6633C8.44641 13.915 8.45641 14.1617 8.46725 14.4117C8.49891 15.2033 8.51974 15.9342 8.76474 16.575C8.80391 16.68 8.91141 17.2192 9.33724 17.695C9.76225 18.1717 10.5956 18.4683 11.5439 18.2717C12.2131 18.1325 13.0647 17.8817 13.6297 17.1017C14.1881 16.33 14.4406 15.2225 14.4906 13.4275C14.5031 13.3308 14.5181 13.2483 14.5339 13.1708L14.6672 13.1825H14.6822C15.3964 13.2142 16.1714 13.1158 16.8189 12.8242C17.3922 12.5658 17.8256 12.3058 18.1414 11.8433C18.2206 11.7292 18.3072 11.5908 18.3306 11.3517C18.3539 11.1142 18.2139 10.7408 17.9797 10.5692C17.5106 10.2242 17.2164 10.355 16.9006 10.4192C16.5897 10.4858 16.2731 10.5225 15.9539 10.53C16.8647 9.04333 17.5172 7.46333 17.8897 6.065C18.1097 5.24 18.2339 4.47917 18.2439 3.81417C18.2539 3.14917 18.1981 2.56 17.7872 2.05C16.5031 0.458333 14.6972 0.0183333 13.3006 0.00333329C13.2572 0.00249996 13.2139 0.00166668 13.1706 0.00250002V0ZM13.1339 0.489167C14.4547 0.476667 16.1431 0.836667 17.3547 2.33917C17.6272 2.67667 17.7081 3.17 17.6989 3.77833C17.6889 4.38583 17.5731 5.1125 17.3614 5.90917C16.9506 7.4525 16.1739 9.25083 15.0797 10.8658C15.1187 10.8926 15.1606 10.9147 15.2047 10.9317C15.4331 11.0233 15.9531 11.1017 16.9922 10.895C17.2531 10.8408 17.4447 10.805 17.6431 10.9517C17.6906 10.991 17.7284 11.0408 17.7534 11.0972C17.7785 11.1536 17.79 11.215 17.7872 11.2767C17.7764 11.3698 17.741 11.4584 17.6847 11.5333C17.4847 11.8258 17.0881 12.1033 16.5797 12.3317C16.1306 12.535 15.4856 12.6408 14.9139 12.6475C14.6272 12.65 14.3631 12.6283 14.1389 12.5608L14.1239 12.5558C14.0372 13.365 13.8381 14.9642 13.7089 15.6933C13.6047 16.2817 13.4231 16.7492 13.0756 17.0992C12.7289 17.4492 12.2389 17.66 11.5789 17.7975C10.7614 17.9675 10.1656 17.7842 9.78141 17.47C9.39808 17.1575 9.22225 16.7417 9.11641 16.4867C9.04391 16.3117 9.00641 16.0842 8.96975 15.78C8.92948 15.4158 8.90252 15.0503 8.88891 14.6842C8.86488 14.042 8.8571 13.3993 8.86558 12.7567C8.52391 13.06 8.09891 13.2617 7.64308 13.3375C7.10141 13.4267 6.61641 13.3392 6.32725 13.2692C6.18546 13.2343 6.04837 13.1825 5.91891 13.115C5.78391 13.0458 5.65641 12.9675 5.57141 12.8125C5.52133 12.724 5.50533 12.6203 5.52641 12.5208C5.55364 12.4198 5.61411 12.3308 5.69808 12.2683C5.85474 12.145 6.06058 12.0767 6.37141 12.0133C6.93808 11.9008 7.13558 11.8233 7.25558 11.7308C7.35808 11.6517 7.47391 11.4917 7.67891 11.2558C7.67792 11.2456 7.67708 11.2353 7.67641 11.225C7.31085 11.2151 6.95246 11.1213 6.62891 10.9508C6.51141 11.0717 5.90808 11.6908 5.17224 12.5492C4.86308 12.9083 4.52141 13.1142 4.16058 13.1292C3.79974 13.1442 3.47391 12.9675 3.19724 12.7075C2.64308 12.1858 2.20141 11.2883 1.81641 10.2742C1.43308 9.25917 1.11974 8.12917 0.898078 7.16667C0.674745 6.20417 0.543078 5.42833 0.524745 5.05417C0.441411 3.46333 0.824745 2.39167 1.48308 1.71583C2.14141 1.04 3.04308 0.784167 3.92308 0.735C5.50141 0.646667 7.00058 1.18083 7.30391 1.29583C7.88808 0.910833 8.64058 0.670833 9.58141 0.685833C10.0274 0.691931 10.4712 0.747833 10.9047 0.8525L10.9206 0.845833C11.1114 0.780833 11.3056 0.725833 11.5022 0.6825C12.0376 0.561421 12.5842 0.497177 13.1331 0.490833L13.1339 0.489167ZM13.2531 1.00083H13.1389C12.688 1.00692 12.2388 1.05603 11.7972 1.1475C12.6737 1.52917 13.4438 2.11902 14.0406 2.86583C14.4031 3.315 14.7031 3.8075 14.9322 4.3325C15.0189 4.53417 15.0772 4.705 15.1097 4.83667C15.1264 4.90333 15.1381 4.95917 15.1414 5.0175C15.1446 5.05442 15.1415 5.09162 15.1322 5.1275L15.1272 5.1375C15.1514 5.80667 14.9806 6.26 14.9597 6.89833C14.9439 7.36167 15.0656 7.90583 15.0956 8.49833C15.1239 9.05667 15.0547 9.66917 14.6814 10.2708C14.7131 10.3075 14.7414 10.3442 14.7714 10.3808C15.7589 8.8725 16.4714 7.2025 16.8506 5.78C17.0531 5.01333 17.1614 4.31917 17.1706 3.76917C17.1789 3.21917 17.0731 2.82 16.9381 2.65417C15.8814 1.34333 14.4522 1.01 13.2531 1.00083ZM9.48225 1.19667C8.55141 1.19833 7.88308 1.47167 7.37724 1.88C6.85474 2.3025 6.50474 2.88 6.27474 3.4725C6.0521 4.06461 5.91598 4.68572 5.87058 5.31667L5.88141 5.31083C6.16224 5.1575 6.53141 5.005 6.92641 4.91667C7.32225 4.82833 7.74808 4.80083 8.13391 4.94583C8.51974 5.09167 8.83891 5.4325 8.95475 5.95083C9.50891 8.43917 8.78225 9.36417 8.51391 10.0617C8.41237 10.3146 8.32528 10.573 8.25308 10.8358C8.28725 10.8275 8.32141 10.8192 8.35474 10.8158C8.50113 10.8079 8.64719 10.8366 8.77975 10.8992C9.04975 11.0075 9.23475 11.2342 9.33475 11.4942C9.36058 11.5625 9.37975 11.6358 9.39058 11.7108C9.40225 11.7425 9.40725 11.775 9.40641 11.8083C9.3765 12.7598 9.37984 13.7121 9.41641 14.6633C9.43475 15.075 9.46141 15.4367 9.49558 15.7225C9.52891 16.0075 9.57724 16.2242 9.60808 16.2975C9.70808 16.5425 9.85558 16.8625 10.1222 17.08C10.3889 17.2967 10.7697 17.4417 11.4672 17.2967C12.0722 17.1708 12.4456 16.9967 12.6956 16.7442C12.9439 16.4933 13.0931 16.1442 13.1881 15.6083C13.3306 14.8058 13.6172 12.48 13.6514 12.0417C13.6364 11.7125 13.6864 11.4583 13.7947 11.265C13.9072 11.0667 14.0806 10.945 14.2297 10.8792C14.3047 10.8458 14.3747 10.8242 14.4322 10.8083C14.3712 10.7234 14.3073 10.6406 14.2406 10.56C14.0257 10.3074 13.8491 10.0247 13.7164 9.72083C13.653 9.59556 13.5855 9.47244 13.5139 9.35167C13.4097 9.16833 13.2772 8.93917 13.1389 8.68167C12.8614 8.16583 12.5597 7.54083 12.4031 6.93167C12.2472 6.32417 12.2239 5.695 12.6239 5.25083C12.9789 4.85667 13.6006 4.69333 14.5347 4.785C14.5072 4.705 14.4906 4.63833 14.4439 4.53167C14.232 4.04808 13.9565 3.59491 13.6247 3.18417C12.8331 2.2025 11.5522 1.22917 9.57225 1.1975L9.48225 1.19667ZM4.25224 1.23583C4.15225 1.23583 4.05224 1.23917 3.95224 1.24417C3.15724 1.28833 2.40558 1.5125 1.86808 2.06583C1.32891 2.61833 0.974745 3.525 1.05141 5.02667C1.06724 5.31 1.19474 6.10667 1.41308 7.05167C1.63141 7.99833 1.94141 9.11083 2.31308 10.0933C2.68474 11.0767 3.13641 11.9325 3.56474 12.3375C3.78058 12.54 3.96808 12.6217 4.13808 12.615C4.30891 12.6067 4.51391 12.5117 4.76558 12.2192C5.22392 11.6828 5.69916 11.1612 6.19058 10.655C5.84352 10.3637 5.57625 9.98888 5.41391 9.56583C5.25369 9.14656 5.20488 8.69292 5.27224 8.24917C5.35308 7.68417 5.36391 7.15583 5.35474 6.73917C5.34474 6.3325 5.31474 6.0625 5.31474 5.89333V5.87C5.31391 4.99 5.47141 4.1175 5.78058 3.29083C6.00058 2.7225 6.32891 2.145 6.82141 1.6775C6.33808 1.52333 5.47974 1.28833 4.55058 1.24417C4.45066 1.23896 4.35063 1.23618 4.25058 1.23583H4.25224ZM14.0139 5.27083C13.4797 5.2775 13.1797 5.41167 13.0222 5.58667C12.7989 5.835 12.7781 6.27 12.9164 6.80667C13.0539 7.34333 13.3389 7.94417 13.6072 8.4425C13.7406 8.6925 13.8706 8.9175 13.9756 9.09917C14.0814 9.2825 14.1589 9.4125 14.2056 9.52417C14.2489 9.62583 14.2972 9.71583 14.3456 9.8C14.5522 9.37583 14.5897 8.96 14.5681 8.52583C14.5406 7.98917 14.4122 7.44 14.4314 6.88417C14.4522 6.23417 14.5847 5.81 14.5964 5.3075C14.4032 5.28322 14.2086 5.27097 14.0139 5.27083ZM7.53058 5.35833C7.36735 5.35985 7.20476 5.37885 7.04558 5.415C6.72917 5.4895 6.42382 5.60492 6.13724 5.75833C6.04141 5.80833 5.94891 5.86667 5.86224 5.9325L5.84558 5.9475C5.85058 6.05917 5.87308 6.33 5.88308 6.7275C5.89141 7.16333 5.88141 7.71917 5.79474 8.31917C5.60641 9.62583 6.58308 10.7075 7.73141 10.7092C7.79808 10.4408 7.90891 10.1692 8.01891 9.8825C8.33891 9.04667 8.96808 8.4375 8.43808 6.05833C8.35141 5.66917 8.17974 5.51167 7.94308 5.4225C7.81042 5.37702 7.67078 5.3553 7.53058 5.35833ZM13.7639 5.51417H13.8039C13.8556 5.51583 13.9039 5.52167 13.9456 5.53083C13.9839 5.53847 14.0206 5.55286 14.0539 5.57333C14.069 5.58239 14.082 5.59447 14.0922 5.60881C14.1024 5.62315 14.1095 5.63945 14.1131 5.65667V5.66333C14.1144 5.69986 14.1045 5.73592 14.0847 5.76667C14.0614 5.8086 14.0322 5.84703 13.9981 5.88083C13.9175 5.96673 13.8109 6.02381 13.6947 6.04333C13.5809 6.05681 13.4661 6.02869 13.3714 5.96417C13.3331 5.93926 13.2986 5.90895 13.2689 5.87417C13.2434 5.84732 13.2261 5.8138 13.2189 5.7775C13.2172 5.75968 13.2192 5.74169 13.225 5.72474C13.2307 5.70778 13.24 5.69224 13.2522 5.67917C13.2784 5.65065 13.3098 5.62745 13.3447 5.61083C13.4764 5.54925 13.6194 5.51576 13.7647 5.5125L13.7639 5.51417ZM7.60724 5.6425C7.64891 5.6425 7.69308 5.64667 7.73808 5.6525C7.85808 5.66917 7.96558 5.7 8.04725 5.74583C8.08724 5.76667 8.12224 5.79333 8.15225 5.82667C8.16808 5.845 8.17974 5.865 8.18725 5.8875C8.19475 5.91 8.19724 5.93333 8.19475 5.95667C8.18698 6.00079 8.1664 6.04165 8.13558 6.07417C8.10327 6.11292 8.06535 6.14662 8.02308 6.17417C7.91962 6.24472 7.79404 6.27522 7.66975 6.26C7.54352 6.24 7.42748 6.17876 7.33975 6.08583C7.30278 6.04887 7.27135 6.00677 7.24641 5.96083C7.22046 5.92087 7.20899 5.87323 7.21391 5.82583C7.22558 5.7425 7.29641 5.70083 7.36391 5.67583C7.4421 5.65182 7.52389 5.64167 7.60558 5.64583L7.60724 5.6425ZM14.7406 11.2525H14.7381C14.6222 11.2942 14.5272 11.3108 14.4464 11.3442C14.366 11.3742 14.2993 11.4326 14.2589 11.5083C14.2089 11.5958 14.1672 11.7517 14.1797 12.0167C14.2156 12.0405 14.255 12.0585 14.2964 12.07C14.4306 12.11 14.6564 12.1367 14.9089 12.1325C15.4106 12.1267 16.0289 12.0133 16.3572 11.865C16.6264 11.7433 16.8764 11.585 17.0997 11.395C16.0022 11.615 15.3831 11.5567 15.0022 11.4042C14.908 11.3664 14.8199 11.315 14.7406 11.2517V11.2525ZM8.41724 11.3242H8.40058C8.35891 11.3275 8.29808 11.3408 8.18141 11.4675C7.90641 11.7658 7.81141 11.9525 7.58475 12.1275C7.35975 12.3025 7.06558 12.395 6.47891 12.5117C6.29308 12.5483 6.18724 12.5892 6.11558 12.6217C6.13891 12.64 6.13641 12.645 6.17058 12.6625C6.25641 12.7083 6.36724 12.7483 6.45558 12.7708C6.70808 12.8317 7.12225 12.9033 7.55475 12.8317C7.98641 12.76 8.43641 12.5592 8.81975 12.0375C8.88641 11.9475 8.89308 11.8142 8.83891 11.6708C8.78308 11.5292 8.66308 11.4058 8.57808 11.3708C8.5272 11.3474 8.47291 11.3322 8.41724 11.3258V11.3242Z" fill="#1A1A1A"/>
</svg>
