<svg width="39" height="41" viewBox="0 0 39 41" fill="none" xmlns="http://www.w3.org/2000/svg">
<g clip-path="url(#clip0_18_145)">
<path d="M38.6336 24.934C38.401 24.2297 37.7919 23.7391 37.0041 23.6214C36.6326 23.566 36.2072 23.5896 35.7037 23.6934C34.8263 23.8744 34.1753 23.9434 33.7002 23.9567C35.4935 20.929 36.9516 17.4763 37.7911 14.2262C39.1485 8.97077 38.4232 6.57662 37.5755 5.4937C35.3323 2.62732 32.0594 1.08747 28.111 1.04036C26.0047 1.0146 24.1557 1.43047 23.1911 1.72953C22.293 1.57106 21.3273 1.48258 20.3141 1.46622C18.4147 1.43592 16.7365 1.84997 15.3026 2.70095C14.5087 2.43249 13.2346 2.05404 11.7633 1.81255C8.3027 1.24443 5.51358 1.68711 3.47348 3.12833C1.00312 4.87331 -0.142067 7.90512 0.0697298 12.1395C0.136996 13.484 0.889042 17.5745 2.07317 21.4538C2.7537 23.6835 3.47939 25.5352 4.23007 26.9578C5.29466 28.975 6.43379 30.1629 7.7126 30.5895C8.42935 30.8283 9.73164 30.9955 11.1014 29.8547C11.275 30.065 11.5066 30.2739 11.814 30.468C12.2044 30.7142 12.6818 30.9154 13.1586 31.0346C14.8767 31.4641 16.4861 31.3567 17.8592 30.7547C17.8676 30.9989 17.8742 31.2322 17.8796 31.4337C17.8887 31.7605 17.8978 32.0809 17.9098 32.3806C17.9911 34.4067 18.129 35.9822 18.5374 37.0845C18.5599 37.1451 18.59 37.2375 18.6218 37.3355C18.8256 37.9594 19.1663 39.0038 20.0332 39.8218C20.9308 40.6691 22.0166 40.9289 23.0111 40.9289C23.5098 40.9289 23.9857 40.8635 24.4031 40.7741C25.8908 40.4552 27.5805 39.9695 28.8028 38.2291C29.9584 36.5838 30.5202 34.1057 30.6218 30.2011C30.635 30.0906 30.6471 29.9852 30.6588 29.8847L30.683 29.6784L30.9553 29.7023L31.0254 29.707C32.5407 29.7761 34.3936 29.4548 35.5315 28.9262C36.4306 28.509 39.312 26.9878 38.6336 24.934Z" fill="black"/>
<path d="M36.0427 25.3334C31.537 26.2628 31.2272 24.7374 31.2272 24.7374C35.9843 17.6785 37.9731 8.71837 36.257 6.52541C31.5751 0.543429 23.4706 3.37254 23.3353 3.44587L23.2918 3.45374C22.4016 3.26891 21.4055 3.15892 20.2857 3.14059C18.2472 3.10726 16.7006 3.67509 15.5271 4.565C15.5271 4.565 1.06948 -1.39108 1.74199 12.0558C1.88501 14.9164 5.84219 33.701 10.562 28.0272C12.2872 25.9524 13.9541 24.1982 13.9541 24.1982C14.7819 24.7481 15.773 25.0287 16.812 24.928L16.8928 24.8595C16.8676 25.117 16.8791 25.369 16.925 25.6673C15.7091 27.0258 16.0665 27.2642 13.6358 27.7646C11.1762 28.2716 12.6211 29.1739 13.5644 29.4099C14.7081 29.6958 17.3539 30.1009 19.1416 27.5983L19.0704 27.8839C19.5467 28.2655 19.8812 30.3659 19.8252 32.2701C19.7691 34.1742 19.7317 35.4814 20.107 36.5026C20.4825 37.5237 20.8566 39.8212 24.052 39.1365C26.7219 38.5643 28.1056 37.0816 28.2981 34.6082C28.4346 32.8499 28.7438 33.1099 28.7632 31.5378L29.0112 30.7936C29.2971 28.41 29.0567 27.641 30.7015 27.9987L31.1015 28.0339C32.312 28.0889 33.8967 27.839 34.8267 27.4068C36.8292 26.4775 38.017 24.9257 36.0424 25.3334H36.0427Z" fill="#336791"/>
<path d="M16.3734 13.335C15.9674 13.2785 15.5997 13.3308 15.4137 13.4717C15.3091 13.5509 15.2767 13.6427 15.2679 13.7059C15.2446 13.8733 15.3618 14.0584 15.434 14.1539C15.6379 14.4242 15.9357 14.6099 16.2305 14.6508C16.2733 14.6569 16.3158 14.6596 16.3581 14.6596C16.8497 14.6596 17.2968 14.2768 17.3362 13.9942C17.3854 13.6403 16.8717 13.4043 16.3734 13.335ZM29.8242 13.3462C29.7854 13.0689 29.2918 12.9898 28.8234 13.0549C28.3555 13.1201 27.902 13.3312 27.9398 13.6093C27.9701 13.8254 28.3605 14.1945 28.8226 14.1945C28.8617 14.1945 28.9011 14.1919 28.9408 14.1863C29.2492 14.1436 29.4756 13.9477 29.5831 13.8348C29.7468 13.6627 29.8416 13.4709 29.8242 13.3462Z" fill="white"/>
<path d="M37.542 25.2278C37.3702 24.7083 36.8172 24.5412 35.8985 24.7309C33.1708 25.2938 32.1939 24.9039 31.8732 24.6677C33.9934 21.4377 35.7376 17.5332 36.6786 13.8904C37.1243 12.1648 37.3705 10.5623 37.3906 9.25605C37.4129 7.8224 37.1687 6.76887 36.6651 6.1253C34.6347 3.53086 31.6547 2.13918 28.0475 2.101C25.5676 2.07313 23.4723 2.70776 23.0662 2.88623C22.2108 2.67352 21.2783 2.54293 20.2631 2.52626C18.4015 2.49612 16.7923 2.94183 15.46 3.85037C14.8812 3.63494 13.3856 3.12151 11.5566 2.82684C8.39446 2.3178 5.88168 2.70352 4.08852 3.97385C1.94889 5.48976 0.961109 8.19948 1.15245 12.0276C1.21684 13.3155 1.95071 17.2775 3.10877 21.0718C4.63317 26.0659 6.29027 28.893 8.03373 29.4746C8.23781 29.5427 8.47308 29.5902 8.7326 29.5902C9.3686 29.5902 10.1484 29.3036 10.9597 28.3282C11.9492 27.1412 12.9728 25.9829 14.0292 24.8549C14.7146 25.2228 15.4675 25.4282 16.2376 25.4488C16.2391 25.469 16.2411 25.4891 16.2429 25.5091C16.1104 25.6672 15.9805 25.8276 15.8536 25.9901C15.32 26.6675 15.2089 26.8085 13.4914 27.1621C13.0028 27.263 11.7052 27.5304 11.6861 28.44C11.6655 29.4339 13.22 29.8513 13.3971 29.8955C14.0143 30.05 14.609 30.1262 15.1761 30.1262C16.5552 30.1262 17.7688 29.6729 18.7387 28.7959C18.7089 32.3389 18.8566 35.8301 19.282 36.8937C19.6305 37.7646 20.4816 39.8927 23.1701 39.8925C23.5646 39.8925 23.9988 39.8466 24.4765 39.7442C27.2824 39.1428 28.5009 37.9026 28.9722 35.1685C29.2245 33.7072 29.6573 30.218 29.8609 28.3464C30.2906 28.4805 30.8437 28.5418 31.4417 28.5417C32.6888 28.5417 34.1279 28.2767 35.0304 27.8578C36.0443 27.387 37.8738 26.2316 37.542 25.2278ZM30.8599 12.5806C30.8507 13.1331 30.7746 13.6347 30.694 14.1583C30.6072 14.7214 30.5175 15.3036 30.495 16.0104C30.4727 16.6982 30.5586 17.4133 30.6416 18.1049C30.8095 19.5017 30.9817 20.9397 30.315 22.3587C30.2042 22.1624 30.1056 21.9596 30.0196 21.7513C29.9367 21.5504 29.7567 21.2277 29.5075 20.7811C28.538 19.0425 26.2678 14.9711 27.43 13.3097C27.7762 12.8152 28.6547 12.3068 30.8599 12.5806ZM28.1869 3.21983C31.419 3.29119 33.9757 4.50031 35.7858 6.81341C37.1742 8.58763 35.6454 16.6606 31.2196 23.6252C31.1751 23.5686 31.1303 23.5122 31.0854 23.456L31.0293 23.386C32.173 21.4972 31.9494 19.6285 31.7503 17.9717C31.6685 17.2918 31.5912 16.6495 31.6109 16.0463C31.6312 15.4069 31.7158 14.8585 31.7976 14.3283C31.898 13.6748 32.0003 12.9987 31.9721 12.2017C31.9932 12.118 32.0016 12.0193 31.9906 11.902C31.9186 11.1377 31.046 8.85018 29.2674 6.77978C28.2944 5.64732 26.8756 4.38002 24.9384 3.52525C25.7717 3.35254 26.9111 3.1915 28.1869 3.21983ZM10.1011 27.6144C9.20725 28.6891 8.59004 28.4831 8.38703 28.4155C7.06444 27.9743 5.52974 25.1788 4.1767 20.746C3.0059 16.9103 2.32173 13.0532 2.26749 11.9717C2.0966 8.55112 2.92576 6.16726 4.7321 4.88618C7.6718 2.80154 12.505 4.04929 14.447 4.68211C14.4192 4.70968 14.3901 4.73544 14.3625 4.76346C11.1755 7.98193 11.2511 13.4808 11.259 13.817C11.2587 13.9466 11.2696 14.1303 11.2845 14.3828C11.3393 15.3077 11.4414 17.0291 11.1687 18.9784C10.9154 20.7899 11.4738 22.5629 12.7005 23.8429C12.8264 23.974 12.9588 24.0988 13.097 24.2168C12.551 24.8016 11.3643 26.0948 10.1011 27.6144ZM13.5067 23.0704C12.518 22.0387 12.0689 20.6037 12.2745 19.1329C12.5624 17.0737 12.4562 15.2803 12.3991 14.3168C12.391 14.1819 12.3839 14.0637 12.3798 13.9706C12.8454 13.5577 15.0029 12.4018 16.5415 12.7543C17.2436 12.9151 17.6714 13.3932 17.8493 14.2155C18.7698 18.4732 17.9711 20.2477 17.3293 21.6737C17.1971 21.9675 17.0721 22.2452 16.9654 22.5324L16.8827 22.7545C16.6733 23.316 16.4785 23.8381 16.3578 24.3338C15.3066 24.3307 14.2842 23.8817 13.5067 23.0703V23.0704ZM13.668 28.8123C13.3611 28.7356 13.085 28.6024 12.9231 28.492C13.0584 28.4284 13.2991 28.3417 13.7167 28.2557C15.7372 27.8398 16.0493 27.5462 16.7307 26.681C16.8869 26.4825 17.064 26.2577 17.3093 25.9838L17.3096 25.9835C17.6749 25.5744 17.842 25.6438 18.145 25.7695C18.3906 25.871 18.6298 26.1789 18.7268 26.5177C18.7727 26.6776 18.8242 26.9812 18.6556 27.2176C17.2321 29.2107 15.1577 29.1851 13.668 28.8123ZM24.2426 38.6525C21.7707 39.1821 20.8955 37.9209 20.3187 36.4791C19.9465 35.5483 19.7635 31.3508 19.8933 26.7154C19.895 26.6537 19.8862 26.5942 19.8692 26.5381C19.854 26.4274 19.831 26.318 19.8001 26.2106C19.6071 25.5361 19.1367 24.9719 18.5724 24.738C18.3482 24.6451 17.9367 24.4747 17.4422 24.6012C17.5476 24.1667 17.7305 23.676 17.9288 23.1447L18.012 22.9212C18.1056 22.6692 18.2232 22.4082 18.3474 22.1319C19.019 20.6399 19.9388 18.5963 18.9405 13.9797C18.5666 12.2504 17.318 11.406 15.4251 11.6022C14.2904 11.7196 13.2522 12.1774 12.7343 12.44C12.623 12.4963 12.5212 12.5509 12.426 12.6039C12.5706 10.8616 13.1166 7.6056 15.1591 5.54551C16.4452 4.24867 18.1579 3.60813 20.2446 3.64267C24.3563 3.70993 26.9931 5.82003 28.4811 7.57849C29.7634 9.09364 30.4577 10.62 30.7348 11.4433C28.6509 11.2313 27.2336 11.6426 26.5152 12.6698C24.9522 14.9041 27.3703 19.2407 28.5324 21.3248C28.7456 21.7068 28.9295 22.0369 28.9874 22.1772C29.3658 23.0944 29.8558 23.7067 30.2135 24.1536C30.3232 24.2906 30.4295 24.4235 30.5104 24.5395C29.8793 24.7215 28.7456 25.1419 28.8489 27.2433C28.7656 28.2978 28.1731 33.2346 27.8721 34.9788C27.4747 37.2831 26.6267 38.1413 24.2426 38.6526V38.6525ZM34.5603 26.8452C33.9149 27.1447 32.8349 27.3694 31.8089 27.4177C30.6757 27.4707 30.0988 27.2908 29.9631 27.18C29.8994 25.8704 30.3868 25.7336 30.9027 25.5888C30.9837 25.5661 31.0628 25.5438 31.1392 25.5171C31.1866 25.5558 31.2385 25.5941 31.2955 25.6317C32.2063 26.2328 33.8309 26.2977 36.1244 25.8242L36.1496 25.8192C35.8402 26.1084 35.3109 26.4966 34.5603 26.8452Z" fill="white"/>
</g>
<defs>
<clipPath id="clip0_18_145">
<rect width="38.784" height="40" fill="white" transform="translate(0 0.983994)"/>
</clipPath>
</defs>
</svg>
