<svg width="34" height="41" viewBox="0 0 34 41" fill="none" xmlns="http://www.w3.org/2000/svg">
<g clip-path="url(#clip0_18_154)">
<path d="M32.4981 31.3021L18.9126 2.45146C18.7438 2.09648 18.4821 1.79373 18.1553 1.57526C17.8285 1.35678 17.4488 1.23072 17.0562 1.21039C16.6629 1.18403 16.2699 1.26602 15.9199 1.44744C15.57 1.62885 15.2764 1.90275 15.0713 2.23934L0.33648 26.1048C0.11243 26.4652 -0.00424987 26.8819 0.000118304 27.3062C0.00448648 27.7305 0.129722 28.1448 0.361143 28.5005L7.56504 39.6564C7.83758 40.0752 8.23821 40.3947 8.70716 40.5672C9.17611 40.7396 9.68825 40.7559 10.1672 40.6134L31.0731 34.4295C31.3879 34.3375 31.6792 34.179 31.9275 33.9646C32.1757 33.7503 32.375 33.4852 32.512 33.1872C32.647 32.8907 32.7158 32.5684 32.7136 32.2427C32.7113 31.917 32.6382 31.5956 32.4991 31.3011L32.4981 31.3021ZM29.4565 32.5394L11.7166 37.7851C11.1754 37.9461 10.656 37.477 10.7685 36.9309L17.1066 6.58335C17.225 6.01559 18.0091 5.92563 18.257 6.45109L29.9897 31.3662C30.0416 31.4772 30.0688 31.5982 30.0694 31.7207C30.07 31.8432 30.044 31.9644 29.9932 32.076C29.9424 32.1875 29.8681 32.2867 29.7752 32.3667C29.6824 32.4466 29.5734 32.5056 29.4556 32.5393L29.4565 32.5394Z" fill="black"/>
</g>
<defs>
<clipPath id="clip0_18_154">
<rect width="33.04" height="40" fill="white" transform="translate(0 0.984009)"/>
</clipPath>
</defs>
</svg>
