<svg width="36" height="41" viewBox="0 0 36 41" fill="none" xmlns="http://www.w3.org/2000/svg">
<g clip-path="url(#clip0_18_107)">
<path d="M35.104 20.9876C35.104 18.6621 32.1918 16.4583 27.7269 15.0916C28.7572 10.5408 28.2993 6.92023 26.2815 5.76106C25.8164 5.48916 25.2726 5.36037 24.6787 5.36037V6.956C25.0078 6.956 25.2726 7.0204 25.4944 7.14204C26.4675 7.70016 26.8897 9.82529 26.5605 12.5586C26.4818 13.2312 26.353 13.9396 26.1956 14.6623C24.7932 14.3188 23.2619 14.0541 21.652 13.8824C20.686 12.5586 19.6843 11.3565 18.6754 10.3047C21.008 8.13663 23.1975 6.94885 24.6859 6.94885V5.35321C22.7181 5.35321 20.1422 6.75565 17.5377 9.18846C14.9332 6.76996 12.3572 5.38183 10.3895 5.38183V6.97747C11.8707 6.97747 14.0674 8.1581 16.4 10.3118C15.3982 11.3637 14.3965 12.5586 13.4448 13.8824C11.8277 14.0541 10.2965 14.3188 8.89406 14.6694C8.72949 13.9539 8.60785 13.2598 8.52199 12.5944C8.18569 9.86106 8.60069 7.73593 9.56666 7.17066C9.78132 7.04187 10.0604 6.98462 10.3895 6.98462V5.38899C9.78848 5.38899 9.24467 5.51778 8.77242 5.78968C6.76178 6.94885 6.31099 10.5623 7.34851 15.0988C2.8979 16.4726 0 18.6693 0 20.9876C0 23.3131 2.91221 25.5169 7.37713 26.8836C6.34677 31.4344 6.80471 35.0549 8.82251 36.2141C9.28761 36.486 9.83141 36.6148 10.4325 36.6148C12.4002 36.6148 14.9761 35.2124 17.5806 32.7796C20.1852 35.198 22.7611 36.5862 24.7288 36.5862C25.3298 36.5862 25.8736 36.4574 26.3459 36.1855C28.3565 35.0263 28.8073 31.4129 27.7698 26.8764C32.2061 25.5097 35.104 23.3059 35.104 20.9876ZM25.7878 16.215C25.523 17.138 25.1939 18.0897 24.8218 19.0413C24.5284 18.4689 24.2208 17.8965 23.8845 17.3241C23.5553 16.7516 23.2047 16.1935 22.8541 15.6497C23.8701 15.8 24.8504 15.986 25.7878 16.215ZM22.5106 23.8354C21.9525 24.8014 21.3801 25.7173 20.7862 26.5687C19.7201 26.6618 18.6396 26.7118 17.552 26.7118C16.4715 26.7118 15.3911 26.6618 14.3321 26.5759C13.7382 25.7244 13.1586 24.8157 12.6005 23.8569C12.0567 22.9195 11.563 21.9679 11.1122 21.0091C11.5558 20.0502 12.0567 19.0914 12.5934 18.1541C13.1515 17.1881 13.7239 16.2722 14.3178 15.4207C15.3839 15.3277 16.4644 15.2776 17.552 15.2776C18.6325 15.2776 19.7129 15.3277 20.7719 15.4136C21.3658 16.2651 21.9454 17.1738 22.5035 18.1326C23.0473 19.07 23.541 20.0216 23.9918 20.9804C23.541 21.9392 23.0473 22.8981 22.5106 23.8354ZM24.8218 22.9052C25.2082 23.864 25.5373 24.8228 25.8092 25.753C24.8719 25.982 23.8845 26.1752 22.8612 26.3255C23.2119 25.7745 23.5625 25.2092 23.8916 24.6296C24.2208 24.0572 24.5284 23.4776 24.8218 22.9052ZM17.5663 30.5399C16.9009 29.853 16.2354 29.0874 15.5771 28.2502C16.2211 28.2789 16.8794 28.3003 17.5448 28.3003C18.2174 28.3003 18.8829 28.286 19.534 28.2502C18.89 29.0874 18.2246 29.853 17.5663 30.5399ZM12.2428 26.3255C11.2267 26.1752 10.2464 25.9892 9.30907 25.7602C9.57382 24.8371 9.90296 23.8855 10.275 22.9338C10.5684 23.5063 10.8761 24.0787 11.2124 24.6511C11.5487 25.2235 11.8921 25.7816 12.2428 26.3255ZM17.5305 11.4352C18.196 12.1221 18.8614 12.8878 19.5197 13.7249C18.8757 13.6963 18.2174 13.6748 17.552 13.6748C16.8794 13.6748 16.214 13.6892 15.5628 13.7249C16.2068 12.8878 16.8722 12.1221 17.5305 11.4352ZM12.2356 15.6497C11.885 16.2007 11.5344 16.7659 11.2052 17.3455C10.8761 17.918 10.5684 18.4904 10.275 19.0628C9.88865 18.104 9.55951 17.1452 9.28761 16.215C10.225 15.9932 11.2124 15.8 12.2356 15.6497ZM5.76003 24.6082C3.22705 23.5277 1.58848 22.111 1.58848 20.9876C1.58848 19.8642 3.22705 18.4403 5.76003 17.367C6.37539 17.1022 7.04799 16.8661 7.74206 16.6443C8.14991 18.0467 8.68656 19.5064 9.352 21.0019C8.69371 22.4902 8.16422 23.9427 7.76352 25.338C7.05515 25.1162 6.38255 24.8729 5.76003 24.6082ZM9.6096 34.8331C8.63647 34.275 8.21431 32.1499 8.54345 29.4166C8.62216 28.7439 8.75096 28.0356 8.90837 27.3129C10.3108 27.6563 11.8421 27.9211 13.452 28.0928C14.418 29.4166 15.4197 30.6186 16.4286 31.6705C14.096 33.8385 11.9065 35.0263 10.4181 35.0263C10.0962 35.0192 9.82425 34.9548 9.6096 34.8331ZM26.582 29.3808C26.9183 32.1141 26.5033 34.2392 25.5373 34.8045C25.3227 34.9333 25.0436 34.9905 24.7145 34.9905C23.2333 34.9905 21.0366 33.8099 18.704 31.6562C19.7058 30.6043 20.7075 29.4094 21.6592 28.0857C23.2763 27.9139 24.8075 27.6492 26.2099 27.2986C26.3745 28.0213 26.5033 28.7153 26.582 29.3808ZM29.3368 24.6082C28.7215 24.8729 28.0489 25.1091 27.3548 25.3309C26.9469 23.9284 26.4103 22.4687 25.7448 20.9733C26.4031 19.485 26.9326 18.0324 27.3333 16.6371C28.0417 16.859 28.7143 17.1022 29.344 17.367C31.8769 18.4474 33.5155 19.8642 33.5155 20.9876C33.5084 22.111 31.8698 23.5349 29.3368 24.6082Z" fill="#61DAFB"/>
<path d="M17.5449 24.2576C19.3508 24.2576 20.8149 22.7935 20.8149 20.9876C20.8149 19.1816 19.3508 17.7176 17.5449 17.7176C15.7389 17.7176 14.2749 19.1816 14.2749 20.9876C14.2749 22.7935 15.7389 24.2576 17.5449 24.2576Z" fill="#61DAFB"/>
</g>
<defs>
<clipPath id="clip0_18_107">
<rect width="35.104" height="40" fill="white" transform="translate(0 0.984009)"/>
</clipPath>
</defs>
</svg>
