<svg width="40" height="25" viewBox="0 0 40 25" fill="none" xmlns="http://www.w3.org/2000/svg">
<g clip-path="url(#clip0_18_102)">
<path d="M19.9468 1.01591C14.6277 1.01591 11.3031 3.67554 9.9734 8.99464C11.9681 6.33501 14.2952 5.33767 16.9548 6.00262C18.4721 6.38192 19.5568 7.48289 20.7573 8.70136C22.713 10.6865 24.9764 12.984 29.9202 12.984C35.2393 12.984 38.5639 10.3244 39.8936 5.00528C37.8989 7.6649 35.5719 8.66224 32.9122 7.9973C31.3949 7.618 30.3103 6.51703 29.1097 5.29856C27.154 3.31338 24.8907 1.01591 19.9468 1.01591ZM9.9734 12.984C4.65431 12.984 1.32974 15.6436 0 20.9627C1.99468 18.3031 4.32176 17.3058 6.98138 17.9707C8.49874 18.35 9.58335 19.451 10.7839 20.6694C12.7396 22.6546 15.003 24.9521 19.9468 24.9521C25.2659 24.9521 28.5905 22.2925 29.9202 16.9734C27.9255 19.633 25.5985 20.6303 22.9388 19.9654C21.4215 19.5861 20.3369 18.4851 19.1363 17.2666C17.1806 15.2815 14.9173 12.984 9.9734 12.984Z" fill="url(#paint0_linear_18_102)"/>
</g>
<defs>
<linearGradient id="paint0_linear_18_102" x1="-283.711" y1="1177.53" x2="-165.581" y2="2503.09" gradientUnits="userSpaceOnUse">
<stop stop-color="#2298BD"/>
<stop offset="1" stop-color="#0ED7B5"/>
</linearGradient>
<clipPath id="clip0_18_102">
<rect width="39.8936" height="24" fill="white" transform="translate(0 0.983994)"/>
</clipPath>
</defs>
</svg>
