<svg width="20" height="20" viewBox="0 0 20 20" fill="none" xmlns="http://www.w3.org/2000/svg">
<path d="M19.5242 7.31057e-07H0.475C0.348946 0.000221492 0.22813 0.0504512 0.139074 0.139663C0.0500177 0.228876 -1.93311e-07 0.349779 0 0.475834L0 19.525C0 19.7875 0.2125 20.0008 0.475833 20.0008H19.525C19.5875 20.0008 19.6494 19.9885 19.7071 19.9646C19.7648 19.9407 19.8173 19.9057 19.8615 19.8615C19.9057 19.8173 19.9407 19.7648 19.9646 19.7071C19.9885 19.6494 20.0008 19.5875 20.0008 19.525V0.475001C20.0007 0.412513 19.9883 0.350659 19.9643 0.292971C19.9403 0.235282 19.9051 0.182887 19.8609 0.13878C19.8166 0.0946718 19.7641 0.059714 19.7063 0.0359023C19.6486 0.0120906 19.5867 -0.0001088 19.5242 7.31057e-07ZM11.905 10.6883H9.52417V18.095H7.61917V10.6883H5.23833V9.0475H11.905V10.6883ZM12.4383 17.6717V15.6925C12.4383 15.6925 13.52 16.5075 14.8175 16.5075C16.115 16.5075 16.065 15.6592 16.065 15.5425C16.065 14.3117 12.3883 14.3117 12.3883 11.5833C12.3883 7.87333 17.7458 9.3375 17.7458 9.3375L17.6792 11.1008C17.6792 11.1008 16.7808 10.5017 15.7658 10.5017C14.7508 10.5017 14.385 10.985 14.385 11.5C14.385 12.8308 18.095 12.6983 18.095 15.3767C18.095 19.5017 12.4383 17.6725 12.4383 17.6725V17.6717Z" fill="#1A1A1A"/>
</svg>
