<svg width="20" height="12" viewBox="0 0 20 12" fill="none" xmlns="http://www.w3.org/2000/svg">
<path d="M10 0C7.33336 0 5.66664 1.33336 5 4C6 2.66664 7.16664 2.16664 8.5 2.5C9.2607 2.69016 9.80445 3.24211 10.4063 3.85297C11.3868 4.8482 12.5215 6 15 6C17.6666 6 19.3334 4.66664 20 2C19 3.33336 17.8334 3.83336 16.5 3.5C15.7393 3.30984 15.1955 2.75789 14.5937 2.14703C13.6132 1.1518 12.4785 0 10 0ZM5 6C2.33336 6 0.666641 7.33336 0 10C1 8.66664 2.16664 8.16664 3.5 8.5C4.2607 8.69016 4.80445 9.24211 5.40633 9.85297C6.3868 10.8482 7.52148 12 10 12C12.6666 12 14.3334 10.6666 15 8C14 9.33336 12.8334 9.83336 11.5 9.5C10.7393 9.30984 10.1955 8.75789 9.59367 8.14703C8.6132 7.1518 7.47852 6 5 6Z" fill="url(#paint0_linear_31_185)"/>
<defs>
<linearGradient id="paint0_linear_31_185" x1="-142.234" y1="589.824" x2="-83.0114" y2="1254.37" gradientUnits="userSpaceOnUse">
<stop/>
<stop offset="1" stop-color="white"/>
</linearGradient>
</defs>
</svg>
