<svg width="40" height="41" viewBox="0 0 40 41" fill="none" xmlns="http://www.w3.org/2000/svg">
<g clip-path="url(#clip0_18_119)">
<path d="M39.4263 7.08955L20.9796 40.0754C20.5988 40.7565 19.6202 40.7604 19.2337 40.0827L0.421281 7.09262C5.71311e-05 6.35417 0.631586 5.45957 1.46851 5.60928L19.935 8.90989C20.0528 8.93094 20.1735 8.93073 20.2912 8.90928L38.3714 5.61388C39.2056 5.46187 39.8401 6.34957 39.4263 7.08955Z" fill="url(#paint0_linear_18_119)"/>
<path d="M28.7314 1.27967L15.0804 3.95458C14.9714 3.97595 14.8725 4.03296 14.7993 4.11665C14.7262 4.20034 14.6829 4.30596 14.6764 4.41691L13.8367 18.5992C13.8321 18.677 13.8457 18.7548 13.8764 18.8264C13.907 18.898 13.954 18.9615 14.0135 19.0118C14.073 19.0621 14.1435 19.0978 14.2192 19.1162C14.2949 19.1345 14.3739 19.1349 14.4498 19.1174L18.2505 18.2403C18.6061 18.1582 18.9274 18.4715 18.8543 18.829L17.7251 24.3585C17.6492 24.7306 17.9985 25.0487 18.3619 24.9383L20.7094 24.2252C21.0733 24.1147 21.423 24.4338 21.346 24.8062L19.5516 33.4916C19.4393 34.0349 20.162 34.3312 20.4632 33.8654L20.6646 33.5544L31.7882 11.355C31.9746 10.9833 31.6533 10.5595 31.2452 10.6383L27.3329 11.3933C26.9653 11.4642 26.6526 11.1218 26.7563 10.7623L29.3097 1.91058C29.4135 1.55011 29.0994 1.20757 28.7314 1.27967Z" fill="url(#paint1_linear_18_119)"/>
</g>
<defs>
<linearGradient id="paint0_linear_18_119" x1="-84.1609" y1="696.083" x2="5086.95" y2="7668.28" gradientUnits="userSpaceOnUse">
<stop stop-color="#41D1FF"/>
<stop offset="1" stop-color="#BD34FE"/>
</linearGradient>
<linearGradient id="paint1_linear_18_119" x1="2042.41" y1="191.039" x2="3105.15" y2="7428.64" gradientUnits="userSpaceOnUse">
<stop stop-color="#FFEA83"/>
<stop offset="0.083" stop-color="#FFDD35"/>
<stop offset="1" stop-color="#FFA800"/>
</linearGradient>
<clipPath id="clip0_18_119">
<rect width="39.84" height="40" fill="white" transform="translate(0 0.984009)"/>
</clipPath>
</defs>
</svg>
